<svg width="20" height="20" viewBox="0 0 20 20" fill="none" xmlns="http://www.w3.org/2000/svg">
<path d="M9.96094 19.9219C4.46289 19.9219 0 15.459 0 9.96094C0 4.46289 4.46289 0 9.96094 0C15.459 0 19.9219 4.46289 19.9219 9.96094C19.9219 15.459 15.459 19.9219 9.96094 19.9219ZM4.10156 3.62305C4.59961 3.98438 5.21484 4.27734 5.91797 4.50195C6.35742 3.31055 6.93359 2.33398 7.60742 1.65039C6.2793 2.03125 5.08789 2.71484 4.10156 3.62305ZM12.3145 1.65039C12.9883 2.33398 13.5742 3.31055 14.0039 4.50195C14.707 4.27734 15.3223 3.98438 15.8203 3.62305C14.834 2.71484 13.6426 2.03125 12.3145 1.65039ZM7.17773 4.82422C7.8418 4.94141 8.55469 5.01953 9.32617 5.04883V1.88477C8.48633 2.25586 7.72461 3.33008 7.17773 4.82422ZM10.6055 1.88477V5.04883C11.3672 5.01953 12.0801 4.94141 12.7441 4.82422C12.1973 3.33008 11.4355 2.25586 10.6055 1.88477ZM1.34766 9.31641H5.03906C5.08789 8.00781 5.26367 6.78711 5.54688 5.69336C4.62891 5.40039 3.83789 5.00977 3.23242 4.55078C2.16797 5.86914 1.48438 7.51953 1.34766 9.31641ZM14.8828 9.31641H18.5742C18.4375 7.51953 17.7539 5.86914 16.6895 4.55078C16.084 5.00977 15.293 5.40039 14.375 5.69336C14.6582 6.78711 14.834 8.00781 14.8828 9.31641ZM10.6055 9.31641H13.5742C13.5254 8.14453 13.3691 7.03125 13.1152 6.02539C12.3242 6.19141 11.4844 6.29883 10.6055 6.32812V9.31641ZM6.34766 9.31641H9.32617V6.32812C8.4375 6.29883 7.59766 6.19141 6.80664 6.02539C6.5625 7.03125 6.39648 8.14453 6.34766 9.31641ZM1.34766 10.5957C1.48438 12.4121 2.17773 14.0723 3.26172 15.4004C3.85742 14.9414 4.63867 14.5605 5.54688 14.2676C5.26367 13.1641 5.08789 11.9336 5.03906 10.5957H1.34766ZM6.34766 10.5957C6.38672 11.7871 6.5625 12.9199 6.82617 13.9355C7.60742 13.7793 8.44727 13.6719 9.32617 13.6426V10.5957H6.34766ZM10.6055 13.6426C11.4746 13.6719 12.3242 13.7793 13.0957 13.9355C13.3594 12.9199 13.5352 11.7871 13.5742 10.5957H10.6055V13.6426ZM14.375 14.2676C15.2832 14.5605 16.0645 14.9414 16.6602 15.4004C17.7441 14.0723 18.4375 12.4121 18.5742 10.5957H14.8828C14.834 11.9336 14.6582 13.1641 14.375 14.2676ZM10.6055 14.9219V18.0469C11.4258 17.6758 12.1777 16.6016 12.7246 15.1465C12.0703 15.0195 11.3574 14.9512 10.6055 14.9219ZM7.19727 15.1465C7.74414 16.6016 8.49609 17.6758 9.32617 18.0469V14.9219C8.56445 14.9512 7.85156 15.0195 7.19727 15.1465ZM13.9941 15.459C13.5645 16.6309 12.9883 17.5879 12.3242 18.2617C13.6328 17.8906 14.8145 17.2168 15.791 16.3281C15.293 15.9766 14.6875 15.6836 13.9941 15.459ZM4.13086 16.3281C5.10742 17.2168 6.28906 17.8906 7.59766 18.2617C6.93359 17.5879 6.35742 16.6309 5.92773 15.459C5.23438 15.6836 4.62891 15.9766 4.13086 16.3281Z" fill="white"/>
</svg>
