<svg width="119" height="24" viewBox="0 0 119 24" fill="none" xmlns="http://www.w3.org/2000/svg">
<g clip-path="url(#clip0_1502_1289)">
<path d="M7.90443 19.9661L4.27795 14.6823L2.3887 16.4802V19.9661H0V3.96143H2.3887V14.1123L7.60043 8.52167H10.2063L5.79803 13.3231L10.4451 19.9661H7.90443Z" fill="white"/>
<path d="M15.9068 20.1857C15.0236 20.1857 14.2202 20.0322 13.4963 19.7253C12.7725 19.4037 12.15 18.9725 11.6288 18.4317C11.1221 17.8909 10.724 17.2624 10.4345 16.5462C10.1594 15.8301 10.0219 15.0701 10.0219 14.2661C10.0219 13.4622 10.1594 12.7022 10.4345 11.986C10.724 11.2552 11.1221 10.6194 11.6288 10.0786C12.15 9.52323 12.7725 9.09203 13.4963 8.78507C14.2202 8.46353 15.0309 8.30273 15.9284 8.30273C16.8116 8.30273 17.6078 8.46353 18.3172 8.78507C19.041 9.10661 19.6563 9.53781 20.163 10.0786C20.6697 10.6048 21.0533 11.226 21.3139 11.9422C21.5889 12.6437 21.7265 13.3819 21.7265 14.1565C21.7265 14.3319 21.7193 14.5 21.7047 14.6608C21.6903 14.8069 21.6758 14.9312 21.6614 15.0335H12.5626C12.606 15.5451 12.7218 16.0054 12.91 16.4147C13.1127 16.824 13.366 17.1821 13.67 17.489C13.9886 17.7813 14.3432 18.0079 14.7341 18.1686C15.1395 18.3294 15.5593 18.4098 15.9936 18.4098C16.3121 18.4098 16.6233 18.3733 16.9274 18.3002C17.2459 18.2125 17.5354 18.0956 17.796 17.9494C18.0566 17.7886 18.2882 17.5986 18.4909 17.3794C18.6935 17.1601 18.8528 16.919 18.9686 16.6559L21.0099 17.2478C20.619 18.1102 19.9675 18.8191 19.0555 19.3745C18.1579 19.9153 17.1083 20.1857 15.9068 20.1857ZM19.3595 13.3672C19.3161 12.8849 19.193 12.4391 18.9903 12.0299C18.8022 11.6206 18.556 11.2771 18.252 10.9994C17.948 10.7071 17.5933 10.4806 17.1879 10.3198C16.7826 10.159 16.3555 10.0786 15.9068 10.0786C15.458 10.0786 15.0309 10.159 14.6255 10.3198C14.2347 10.4806 13.8872 10.7071 13.5832 10.9994C13.2792 11.2771 13.0331 11.6206 12.8449 12.0299C12.6567 12.4391 12.5409 12.8849 12.4974 13.3672H19.3595Z" fill="white"/>
<path d="M28.2785 20.1857C27.3955 20.1857 26.592 20.0322 25.8681 19.7253C25.1443 19.4037 24.5218 18.9725 24.0006 18.4317C23.4939 17.8909 23.0958 17.2624 22.8063 16.5462C22.5312 15.8301 22.3937 15.0701 22.3937 14.2661C22.3937 13.4622 22.5312 12.7022 22.8063 11.986C23.0958 11.2552 23.4939 10.6194 24.0006 10.0786C24.5218 9.52323 25.1443 9.09203 25.8681 8.78507C26.592 8.46353 27.4027 8.30273 28.3003 8.30273C29.1834 8.30273 29.9796 8.46353 30.689 8.78507C31.4128 9.10661 32.0281 9.53781 32.5348 10.0786C33.0415 10.6048 33.4251 11.226 33.6857 11.9422C33.9608 12.6437 34.0983 13.3819 34.0983 14.1565C34.0983 14.3319 34.0911 14.5 34.0766 14.6608C34.0621 14.8069 34.0476 14.9312 34.0332 15.0335H24.9344C24.9778 15.5451 25.0936 16.0054 25.2819 16.4147C25.4845 16.824 25.7379 17.1821 26.0419 17.489C26.3604 17.7813 26.715 18.0079 27.1059 18.1686C27.5113 18.3294 27.9311 18.4098 28.3654 18.4098C28.6839 18.4098 28.9952 18.3733 29.2992 18.3002C29.6177 18.2125 29.9072 18.0956 30.1678 17.9494C30.4284 17.7886 30.66 17.5986 30.8627 17.3794C31.0654 17.1601 31.2246 16.919 31.3404 16.6559L33.3817 17.2478C32.9908 18.1102 32.3393 18.8191 31.4273 19.3745C30.5297 19.9153 29.4801 20.1857 28.2785 20.1857ZM31.7313 13.3672C31.6879 12.8849 31.5648 12.4391 31.3622 12.0299C31.174 11.6206 30.9278 11.2771 30.6238 10.9994C30.3198 10.7071 29.9651 10.4806 29.5598 10.3198C29.1544 10.159 28.7273 10.0786 28.2785 10.0786C27.8298 10.0786 27.4027 10.159 26.9974 10.3198C26.6065 10.4806 26.259 10.7071 25.955 10.9994C25.651 11.2771 25.4049 11.6206 25.2167 12.0299C25.0285 12.4391 24.9127 12.8849 24.8692 13.3672H31.7313Z" fill="white"/>
<path d="M45.6885 19.9664H43.2997V13.5427C43.2997 12.4611 43.126 11.6791 42.7786 11.1968C42.4456 10.6998 41.9461 10.4514 41.2802 10.4514C40.9328 10.4514 40.5853 10.5171 40.2379 10.6486C39.8904 10.7802 39.5647 10.9702 39.2606 11.2187C38.9566 11.4525 38.6816 11.7376 38.4355 12.0737C38.2038 12.3953 38.0229 12.7534 37.8926 13.148V19.9664H35.5039V8.50009H37.6754V10.8021C38.1098 10.0275 38.7395 9.42089 39.5647 8.98243C40.3899 8.52932 41.3019 8.30273 42.3008 8.30273C42.9813 8.30273 43.5386 8.42698 43.9729 8.67547C44.4072 8.92396 44.7474 9.26741 44.9936 9.70587C45.2541 10.1297 45.4351 10.6267 45.5364 11.1968C45.6377 11.7522 45.6885 12.3441 45.6885 12.9726V19.9664Z" fill="white"/>
<path d="M65.768 20.1857C64.885 20.1857 64.0819 20.0322 63.3582 19.7253C62.6339 19.4037 62.0117 18.9725 61.4904 18.4317C60.9837 17.8909 60.5856 17.2624 60.296 16.5462C60.021 15.8301 59.8834 15.0701 59.8834 14.2661C59.8834 13.4622 60.021 12.7022 60.296 11.986C60.5856 11.2552 60.9837 10.6194 61.4904 10.0786C62.0117 9.52323 62.6339 9.09203 63.3582 8.78507C64.0819 8.46353 64.8923 8.30273 65.7902 8.30273C66.6733 8.30273 67.4696 8.46353 68.1785 8.78507C68.9028 9.10661 69.5176 9.53781 70.0247 10.0786C70.5311 10.6048 70.9151 11.226 71.1754 11.9422C71.4505 12.6437 71.5883 13.3819 71.5883 14.1565C71.5883 14.3319 71.581 14.5 71.5662 14.6608C71.552 14.8069 71.5373 14.9312 71.5231 15.0335H62.424C62.4677 15.5451 62.5834 16.0054 62.7717 16.4147C62.9742 16.824 63.2277 17.1821 63.5317 17.489C63.8499 17.7813 64.205 18.0079 64.5957 18.1686C65.0013 18.3294 65.421 18.4098 65.8554 18.4098C66.1736 18.4098 66.485 18.3733 66.789 18.3002C67.1077 18.2125 67.397 18.0956 67.6579 17.9494C67.9182 17.7886 68.1496 17.5986 68.3527 17.3794C68.5551 17.1601 68.7145 16.919 68.8302 16.6559L70.8714 17.2478C70.4807 18.1102 69.829 18.8191 68.917 19.3745C68.0197 19.9153 66.9699 20.1857 65.768 20.1857ZM69.221 13.3672C69.1779 12.8849 69.0548 12.4391 68.8517 12.0299C68.664 11.6206 68.4179 11.2771 68.1139 10.9994C67.8099 10.7071 67.4548 10.4806 67.0493 10.3198C66.6443 10.159 66.2173 10.0786 65.768 10.0786C65.3194 10.0786 64.8923 10.159 64.4874 10.3198C64.096 10.4806 63.749 10.7071 63.445 10.9994C63.141 11.2771 62.8948 11.6206 62.7065 12.0299C62.5182 12.4391 62.4025 12.8849 62.3588 13.3672H69.221Z" fill="white"/>
<path d="M79.2277 19.3744C78.9237 19.5205 78.504 19.6887 77.9686 19.8786C77.4326 20.054 76.8609 20.1417 76.2529 20.1417C75.8763 20.1417 75.5219 20.0906 75.1889 19.9883C74.856 19.886 74.5594 19.7325 74.2985 19.5279C74.0523 19.3233 73.8573 19.0602 73.712 18.7386C73.5674 18.4024 73.4954 18.0005 73.4954 17.5327V10.3636H71.9969V8.49999H73.4954V4.729H75.8837V8.49999H78.3594V10.3636H75.8837V16.7654C75.9126 17.1746 76.0357 17.4743 76.2529 17.6643C76.4843 17.8397 76.7668 17.9274 77.0997 17.9274C77.4326 17.9274 77.7514 17.8689 78.0554 17.752C78.3594 17.6351 78.584 17.5401 78.7286 17.467L79.2277 19.3744Z" fill="white"/>
<path d="M90.5243 19.9661H88.1354V13.5423C88.1354 12.49 87.9471 11.7153 87.5711 11.2183C87.2086 10.7068 86.6806 10.451 85.9859 10.451C85.6523 10.451 85.3194 10.5167 84.9865 10.6483C84.6536 10.7799 84.3354 10.9699 84.0314 11.2183C83.7416 11.4522 83.4813 11.7372 83.2493 12.0734C83.0179 12.395 82.8443 12.7531 82.728 13.1477V19.9661H80.3397V3.96143H82.728V10.8018C83.1625 10.0125 83.749 9.39866 84.4874 8.96013C85.24 8.52167 86.0579 8.30241 86.941 8.30241C87.6505 8.30241 88.2296 8.43398 88.6782 8.69706C89.1416 8.94555 89.5108 9.28173 89.7859 9.70555C90.0609 10.1294 90.2493 10.6264 90.3502 11.1964C90.4665 11.7518 90.5243 12.3438 90.5243 12.9723V19.9661Z" fill="white"/>
<path d="M92.7539 19.9661V8.49976H95.1428V19.9661H92.7539ZM92.7539 6.61429V3.96143H95.1428V6.61429H92.7539Z" fill="white"/>
<path d="M96.7317 14.2223C96.7317 13.4184 96.8695 12.6584 97.1446 11.9422C97.4197 11.226 97.8105 10.5975 98.3169 10.0567C98.8382 9.5159 99.4609 9.09203 100.185 8.78507C100.908 8.46353 101.719 8.30273 102.617 8.30273C103.79 8.30273 104.796 8.56581 105.635 9.09203C106.489 9.6036 107.126 10.2905 107.546 11.1529L105.223 11.8983C104.948 11.416 104.578 11.0433 104.115 10.7802C103.652 10.5025 103.138 10.3637 102.574 10.3637C102.095 10.3637 101.647 10.4586 101.227 10.6486C100.822 10.8387 100.467 11.1091 100.163 11.4598C99.8591 11.796 99.6197 12.1979 99.4462 12.6657C99.2726 13.1334 99.1858 13.6523 99.1858 14.2223C99.1858 14.7777 99.2726 15.2966 99.4462 15.7789C99.6345 16.2466 99.8806 16.6559 100.185 17.0067C100.503 17.3574 100.865 17.6352 101.27 17.8398C101.69 18.0298 102.132 18.1248 102.595 18.1248C102.884 18.1248 103.174 18.0883 103.463 18.0152C103.753 17.9275 104.014 17.8105 104.246 17.6644C104.492 17.5182 104.702 17.3502 104.875 17.1601C105.063 16.9701 105.201 16.7655 105.288 16.5462L107.633 17.2478C107.257 18.1102 106.627 18.8191 105.744 19.3745C104.861 19.9153 103.818 20.1857 102.617 20.1857C101.734 20.1857 100.93 20.0249 100.206 19.7034C99.4825 19.3818 98.8597 18.9506 98.3391 18.4098C97.832 17.8544 97.4338 17.2186 97.1446 16.5024C96.8695 15.7862 96.7317 15.0262 96.7317 14.2223Z" fill="white"/>
<path d="M113.183 20.1857C112.271 20.1857 111.359 20.0395 110.447 19.7472C109.55 19.4403 108.775 19.0091 108.124 18.4537L109.079 16.919C109.759 17.4159 110.433 17.796 111.098 18.059C111.764 18.3075 112.445 18.4317 113.14 18.4317C113.849 18.4317 114.407 18.2929 114.812 18.0152C115.232 17.7375 115.442 17.3429 115.442 16.8313C115.442 16.349 115.21 15.9982 114.747 15.7789C114.284 15.5597 113.56 15.3185 112.575 15.0554C111.866 14.8654 111.258 14.6827 110.751 14.5073C110.244 14.3319 109.832 14.1273 109.513 13.8934C109.195 13.6596 108.963 13.3892 108.818 13.0822C108.674 12.7753 108.601 12.4026 108.601 11.9641C108.601 11.3795 108.71 10.8606 108.927 10.4075C109.159 9.95437 109.47 9.57437 109.861 9.26741C110.266 8.94587 110.737 8.7047 111.273 8.5439C111.808 8.38317 112.387 8.30273 113.01 8.30273C113.864 8.30273 114.66 8.4343 115.398 8.69738C116.137 8.96046 116.795 9.34052 117.374 9.83744L116.354 11.2845C115.297 10.4367 114.175 10.0128 112.988 10.0128C112.38 10.0128 111.866 10.1444 111.446 10.4075C111.041 10.656 110.838 11.0579 110.838 11.6133C110.838 11.8472 110.881 12.0445 110.969 12.2053C111.055 12.3661 111.193 12.5049 111.381 12.6218C111.583 12.7387 111.837 12.8484 112.141 12.9507C112.46 13.0384 112.85 13.1407 113.314 13.2576C114.081 13.4477 114.74 13.6376 115.29 13.8277C115.854 14.0177 116.318 14.2442 116.679 14.5073C117.041 14.7558 117.31 15.0554 117.483 15.4062C117.657 15.7424 117.743 16.1516 117.743 16.6339C117.743 17.7302 117.331 18.5998 116.506 19.2429C115.695 19.8714 114.588 20.1857 113.183 20.1857Z" fill="white"/>
<path d="M52.8411 20.2215C54.4401 20.2215 55.7365 18.9127 55.7365 17.2982C55.7365 15.6838 54.4401 14.375 52.8411 14.375C51.242 14.375 49.9457 15.6838 49.9457 17.2982C49.9457 18.9127 51.242 20.2215 52.8411 20.2215Z" fill="#D62C2C"/>
</g>
<defs>
<clipPath id="clip0_1502_1289">
<rect width="118.154" height="24" fill="white"/>
</clipPath>
</defs>
</svg>
