<svg width="114" height="24" viewBox="0 0 114 24" fill="none" xmlns="http://www.w3.org/2000/svg">
<path d="M45.2448 16.5544C45.2204 16.5544 45.1959 16.5544 45.147 16.5544C44.8776 16.5054 44.706 16.2604 44.755 15.9909C45.4901 12.0221 45.4164 7.9797 45.2448 4.18234C45.2204 3.81483 45.1959 3.49635 45.0243 3.25136C44.9754 3.17786 44.8531 3.07987 44.755 2.98187C44.51 2.76137 44.2162 2.49189 44.118 2.0509C44.0691 1.8549 44.1669 1.65891 44.314 1.53642C44.3629 1.48742 44.5345 1.38942 44.7305 1.38942C44.7794 1.38942 44.8283 1.38942 44.8776 1.41392C44.951 1.43842 45.0243 1.43842 45.147 1.43842C45.3675 1.43842 45.6368 1.41392 45.8818 1.36492C46.1515 1.34042 46.4454 1.29142 46.7148 1.29142C46.9352 1.29142 47.5722 1.29142 47.842 1.8304C48.0869 2.24689 48.2829 2.66338 48.479 3.10436C48.7239 3.61885 48.9688 4.15784 49.3364 4.77032C49.4835 5.03978 49.6058 5.30928 49.704 5.60327C49.7773 5.82379 49.8752 6.04426 49.9734 6.24024C49.9489 6.06875 49.9245 5.87277 49.9 5.67679V5.60327C49.7773 4.54981 49.7284 3.54535 49.8018 2.66338C49.9 1.48742 50.4632 1.24242 51.3944 1.21793C51.6149 1.21793 52.8843 1.09543 53.1338 1.09543C53.3226 1.09543 53.7463 1.16563 53.6725 1.33712L53.4031 1.63441L53.6725 1.29142C54.1383 1.9774 53.4031 2.49188 53.1827 2.63888C53.1338 2.66338 53.0604 2.73688 53.0356 2.76137C52.8395 2.98187 52.7662 3.15336 52.7906 3.56985C52.8395 4.74583 52.8395 5.94629 52.8151 7.12222C52.8151 8.46968 52.7906 9.84163 52.8888 11.2136C52.9133 11.5811 52.9377 11.9976 52.8151 12.414C52.6191 13.0755 52.0069 13.541 51.37 13.541C51.0268 13.541 50.7326 13.4185 50.4632 13.198C50.1694 12.9285 49.9978 12.5856 49.8507 12.2916L48.3808 9.13118C48.3318 9.00868 48.2585 8.83719 48.1847 8.64117C48.1847 8.61667 48.1603 8.59218 48.1603 8.56769C48.1603 8.59218 48.1603 8.61667 48.1603 8.64117C48.1358 8.93516 48.1114 9.18016 48.1114 9.40064C48.1358 9.69463 48.1358 9.98862 48.1603 10.2826C48.2096 10.8706 48.2585 11.5076 48.234 12.1201C48.1847 13.149 47.7682 13.688 47.3028 14.325C47.2295 14.423 47.1313 14.5455 47.0334 14.668C46.9601 14.766 46.9108 14.864 46.8374 14.9375C46.6903 15.158 46.5436 15.354 46.372 15.5499C46.2983 15.648 46.2005 15.746 46.0778 15.8684C45.98 15.9664 45.784 16.1379 45.7351 16.2359C45.6613 16.4074 45.4653 16.5544 45.2448 16.5544ZM67.2942 15.501C66.6572 15.501 63.4968 13.59 63.1048 13.0755C63.0314 12.9775 62.9825 12.855 62.9825 12.7815C62.8354 12.2916 62.6394 11.8261 62.4189 11.3361C62.1251 10.6501 61.8064 9.93964 61.6593 9.15567C61.6349 9.08215 61.6348 8.98418 61.6104 8.95969C61.5615 8.91066 61.3899 8.83719 61.2673 8.83719C61.2184 8.83719 61.145 8.86168 61.0716 9.10669C60.9001 9.59666 60.9001 10.1602 60.949 10.6501C60.9734 10.9196 60.9979 11.2136 61.0468 11.5321C61.0716 11.6301 61.0716 11.7281 61.0961 11.8506C61.145 12.0711 61.1939 12.3161 61.1939 12.561C61.1939 12.6346 61.1939 12.7326 61.1694 12.806C61.145 13.0266 61.0468 13.2225 60.9001 13.345C60.6551 13.59 60.3365 13.6145 60.1894 13.6145C60.0182 13.6145 59.8711 13.639 59.6995 13.639C59.0625 13.639 58.4255 13.5655 57.7886 13.4185C57.421 13.3205 57.3232 13.0755 57.2987 12.953C57.2494 12.708 57.3721 12.4631 57.6659 12.2426C58.2784 11.7771 58.3277 10.9196 58.3029 9.98862L58.1806 5.52979C58.1806 5.3583 58.1806 5.16228 58.1806 4.9908C58.1806 4.03534 58.1806 3.03086 57.4454 2.58988C57.3965 2.56538 57.3476 2.51638 57.3232 2.49188C57.1761 2.32039 57.1272 2.0999 57.2005 1.8794C57.3232 1.51191 57.7152 1.38942 58.0824 1.34042C58.6216 1.24242 59.1852 1.21793 59.6261 1.21793C59.7239 1.21793 59.7977 1.21793 59.8955 1.21793C60.6551 1.21793 61.3899 1.29142 62.0758 1.38942H62.1495C62.7865 1.48742 63.5702 1.60991 64.1583 2.0264C65.3833 2.93287 65.8976 4.50082 65.4567 5.87277C65.1873 6.77924 64.673 7.53871 64.1827 8.27369L64.036 8.5187C64.5259 9.59666 65.1384 10.6746 65.8732 11.8261C66.0447 12.0711 66.1918 12.3161 66.3634 12.561C66.5101 12.7571 66.6328 12.9775 66.7799 13.1736C66.9266 13.394 67.0737 13.639 67.2209 13.8595C67.2942 13.982 67.3676 14.1045 67.4413 14.2025C67.4658 14.2515 67.4902 14.3005 67.5147 14.3495C67.5392 14.374 67.5636 14.423 67.5636 14.4475C67.7107 14.5945 67.9801 14.864 67.8334 15.207C67.7107 15.3785 67.5147 15.501 67.2942 15.501ZM60.949 3.81483C60.8568 3.81483 60.8049 3.89794 60.829 3.98681C60.8357 4.01205 60.8432 4.03711 60.8511 4.05983C60.8756 4.13331 60.8756 4.20683 60.9001 4.30484C60.949 4.62332 60.9734 4.9663 60.949 5.30928C60.949 5.3828 60.949 5.45628 60.9245 5.55429C60.9245 5.72578 60.9001 5.87277 60.9001 5.99528C60.9001 6.11778 60.9245 6.36275 61.0468 6.36275C61.145 6.36275 61.2184 6.36275 61.3166 6.36275C61.3899 6.36275 61.4881 6.36275 61.5615 6.36275C62.1495 6.33825 62.4923 6.11778 62.6883 5.67679C62.8843 5.2358 62.8599 4.77032 62.5905 4.37832C62.3207 3.98632 61.8798 3.74134 61.3899 3.74134C61.2673 3.74134 61.145 3.76584 61.0223 3.79033L60.949 3.81483ZM16.0909 15.4765C16.0664 15.4765 16.0419 15.4765 16.0174 15.4765C15.65 15.452 15.2825 15.2315 14.9885 15.06C14.915 15.011 14.8415 14.962 14.768 14.9375C14.3025 14.6925 13.8125 14.3985 13.347 14.1045C13.2735 14.0555 13.2 14.0065 13.1265 13.982C12.71 13.737 12.1956 13.443 11.9506 12.9285C11.5096 12.0466 11.1421 11.1401 10.8236 10.2336C10.7746 10.0621 10.7256 9.86616 10.6766 9.69463C10.6031 9.42517 10.5541 9.13118 10.4561 8.98418C10.4071 8.93516 10.2111 8.86168 10.1131 8.83719C10.0886 8.83719 10.0641 8.83719 10.0151 8.91067C9.64765 9.52314 9.77016 10.6011 9.86813 11.3851L9.89266 11.5811C9.91715 11.7036 9.94164 11.8261 9.96614 11.9731C9.99063 12.1446 10.0396 12.3161 10.0396 12.4876C10.0886 12.953 9.94164 13.198 9.81914 13.345C9.67215 13.5165 9.45167 13.59 9.23116 13.59C9.15768 13.59 9.05967 13.59 8.96166 13.5655C8.86369 13.5655 8.74118 13.541 8.56969 13.541C8.44719 13.541 8.3002 13.541 8.1532 13.541C7.98171 13.541 7.83471 13.541 7.66322 13.541C6.87922 13.541 6.26674 13.492 6.09525 13.002C5.94826 12.5121 6.46276 12.1691 6.63425 12.0466C7.22224 11.6546 7.22224 10.8951 7.14872 9.84163V9.74366C7.14872 9.57217 7.12423 9.42517 7.09973 9.25364C7.07524 8.81269 7.02622 8.34717 7.02622 7.90622C7.02622 7.48973 7.02622 7.07323 7.02622 6.65674C7.02622 6.46076 7.02622 6.26477 7.02622 6.06875C7.02622 5.84828 7.02622 5.62777 7.05075 5.40729C7.07524 4.62332 7.09973 3.79033 6.85473 3.17786C6.78125 3.00637 6.68324 2.90837 6.51175 2.76137C6.41374 2.66338 6.29127 2.56538 6.16877 2.41839C6.02178 2.22239 5.97275 2.0019 6.07076 1.78141C6.31577 1.24242 7.68772 1.14443 8.47168 1.14443H8.59419C9.23116 1.14443 9.86813 1.19343 10.5051 1.24243L10.6766 1.26692C11.2646 1.34042 11.9261 1.41392 12.4651 1.65891C13.102 1.9529 13.6655 2.46739 14.0085 3.10436C14.4495 3.91284 14.572 4.86829 14.327 5.72578C14.0575 6.63225 13.5675 7.39172 13.0775 8.1267C13.004 8.22471 12.9306 8.34717 12.857 8.44518C13.2735 9.40064 13.8125 10.3806 14.523 11.4831C14.7925 11.8996 15.062 12.2916 15.3315 12.708C15.7234 13.296 16.0909 13.884 16.4584 14.472L16.4829 14.4965C16.5319 14.57 16.6054 14.6925 16.6544 14.8395C16.7034 15.06 16.6054 15.305 16.3849 15.4029C16.2869 15.452 16.1889 15.4765 16.0909 15.4765ZM9.84363 6.36275C9.96614 6.38724 10.0886 6.38724 10.2111 6.38724C10.9216 6.38724 11.3626 6.14227 11.5831 5.6523C11.7791 5.18678 11.7546 4.77032 11.5341 4.40281C11.2646 4.01085 10.7746 3.76584 10.2601 3.76584C10.1131 3.76584 9.94164 3.79033 9.79465 3.83932C9.86813 4.47633 9.84363 5.33377 9.84363 5.33377C9.81914 5.60327 9.81914 5.87277 9.84363 6.14227V6.21575C9.81914 6.26477 9.84363 6.31376 9.84363 6.36275ZM41.7906 15.1335C41.5456 15.1335 41.2763 15.0355 41.2025 15.011C40.8105 14.8395 40.4433 14.6435 40.1001 14.4475C39.6592 14.2025 39.2671 13.982 38.8262 13.835C38.7773 13.8105 38.7284 13.8105 38.6791 13.786C38.5075 13.737 38.3119 13.6635 38.1159 13.5655C37.6256 13.296 37.5522 12.8796 37.5032 12.5856C37.4787 12.512 37.4787 12.4631 37.4542 12.3895C37.3807 12.0956 37.2582 11.8016 37.0622 11.4096C36.9397 11.1891 36.8172 10.9441 36.6702 10.7236C36.4253 10.3071 36.1803 9.86616 35.9843 9.40064C35.9353 9.69463 35.9108 10.0132 35.9353 10.4051C35.9353 10.6501 35.9598 10.8951 35.9843 11.1646C36.0333 11.6546 36.0823 12.1691 36.0333 12.708C35.9598 13.59 34.7593 13.59 34.2448 13.59H34.0488C33.9999 13.59 33.9754 13.59 33.9508 13.59C33.8774 13.59 33.8038 13.59 33.7304 13.59C33.5834 13.59 33.4119 13.6145 33.2159 13.6145C32.7504 13.6145 32.4564 13.541 32.2114 13.394C32.0889 13.3205 32.0154 13.198 31.9909 13.051C31.9664 12.9041 32.0154 12.7815 32.0889 12.659C32.2114 12.512 32.3339 12.414 32.4319 12.3161C32.5299 12.2426 32.6034 12.1691 32.6769 12.0956C32.9219 11.7771 33.0934 11.3361 33.1669 10.8216C33.2159 10.3561 33.1914 9.86616 33.1669 9.35165V9.22915C33.0934 7.80821 33.0689 6.55877 33.1179 5.3828C33.1179 5.26029 33.1179 5.13779 33.1424 4.9908C33.1914 4.08433 33.2404 3.20236 32.7014 2.58988C32.5789 2.46739 32.2359 2.0509 32.4319 1.63441C32.6279 1.21793 33.1669 1.21793 33.3874 1.21793C33.5098 1.21793 33.6568 1.21793 33.8038 1.24243C33.9263 1.24243 34.0488 1.24243 34.1713 1.24243C34.2694 1.24243 34.3428 1.24242 34.3918 1.21793H34.4163C34.5143 1.21793 34.5878 1.19343 34.6613 1.19343C35.0533 1.19343 35.3718 1.31592 35.5923 1.56092C36.0333 2.0264 35.9843 2.78587 35.9353 3.56985C35.9353 3.61885 35.9353 3.66785 35.9353 3.71684C36.1068 3.39836 36.2293 3.15336 36.3273 3.00637C36.9397 1.68341 37.7483 1.09543 39.0222 1.09543C39.4876 1.09543 39.9775 1.16893 40.5411 1.24243L40.7127 1.26692C40.9331 1.29142 41.1047 1.46292 41.1292 1.68341C41.1536 1.9039 41.0558 2.0999 40.8598 2.19789C39.757 2.71238 39.1938 3.66785 38.5813 4.6968C38.3119 5.13779 38.0666 5.57878 37.7483 5.99528C37.4298 6.41177 37.7972 7.07323 38.287 7.80821L38.4097 7.9797C38.8262 8.61667 39.1693 9.32716 39.4876 9.98862C39.6592 10.3316 39.8063 10.6746 39.9775 10.9931C40.4188 11.8506 41.0558 12.9285 41.9866 13.688C42.0844 13.7615 42.2315 13.884 42.3297 14.08C42.3542 14.1535 42.3786 14.227 42.4031 14.3005C42.4275 14.4965 42.3786 14.6925 42.256 14.8395C42.2315 15.011 42.06 15.1335 41.7906 15.1335ZM28.7325 13.8595C28.2915 13.8595 27.8506 13.7615 27.4341 13.59C26.2091 13.051 25.2291 11.8016 24.6657 10.0376C24.1022 8.34717 24.0532 6.55877 24.4696 4.9908C24.9597 3.20236 26.1601 1.8794 27.7525 1.34042C28.1201 1.21793 28.5855 1.04643 29.0265 1.04643C29.0755 1.04643 29.149 1.04643 29.198 1.04643C30.864 1.21793 32.3094 2.44288 32.6279 3.96182C32.6279 4.01085 32.6769 4.15784 32.6034 4.32933C32.5299 4.47633 32.4319 4.54981 32.3829 4.5743C31.8684 4.94181 31.3784 5.33377 30.8884 5.75027C30.864 5.77476 30.864 5.77476 30.815 5.79929C30.5455 6.06875 30.3005 6.26477 29.982 6.26477C29.9575 6.26477 29.9085 6.26477 29.884 6.26477C29.688 6.24024 29.541 6.11778 29.443 5.94625C29.2715 5.60327 29.4185 5.18678 29.688 4.67231L29.7125 4.62332C29.737 4.59883 29.7615 4.54981 29.7615 4.52531C29.7615 4.52531 29.7615 4.50082 29.737 4.47633C29.6145 4.13331 29.3695 3.74134 29.002 3.74134C28.904 3.74134 28.806 3.76584 28.708 3.81483C27.7525 4.20683 27.3606 5.28479 27.3116 6.09325C27.2626 6.73026 27.2626 7.39172 27.2871 8.02869C27.3116 8.61667 27.3851 9.40064 27.6546 10.0866C27.875 10.6011 28.3405 11.1401 28.7325 11.1401C28.7815 11.1401 28.806 11.1401 28.855 11.1156C28.855 11.1156 28.8795 11.1156 28.953 11.0666C29.247 10.8216 29.4675 10.4786 29.5165 10.1111C29.541 9.91514 29.541 9.69463 29.5165 9.47416C29.492 9.40064 29.3695 8.93516 29.3205 8.83719C29.2715 8.73918 29.3141 8.20022 29.5591 8.20022C29.8041 8.20022 29.7615 8.61667 29.7615 8.61667L29.4922 8.21508C29.6147 8.1416 29.7615 8.10221 29.9085 8.10221C30.4475 8.10221 30.9129 8.64117 31.3049 9.13118L31.3784 9.20466C31.6479 9.52314 31.8929 9.84163 32.0889 10.1111C32.1134 10.1602 32.1624 10.1846 32.2114 10.2581C32.4564 10.5276 32.7994 10.8706 32.7504 11.3116C32.7504 11.3361 32.7504 11.3606 32.7259 11.3851C32.6769 11.5566 32.5789 11.6546 32.5299 11.7281C32.0154 12.3651 30.5455 13.8595 28.7325 13.8595ZM70.7977 13.786C70.1852 13.786 69.5727 13.6145 68.9357 13.296C65.4322 11.4831 65.9714 6.82823 66.2163 5.43178L66.2408 5.28479C66.3634 4.6968 66.5346 3.91284 66.9759 3.25136C67.4169 2.61438 68.0538 2.0999 68.5437 1.78141C69.2296 1.34042 69.9648 1.09543 70.6995 1.09543C71.1405 1.09543 71.5815 1.19343 71.9979 1.36492C73.9089 2.19789 75.1339 4.25582 75.281 6.87725C75.3299 7.63672 75.2565 8.42069 75.1094 9.13118C74.9379 9.93964 74.5951 10.7236 74.1542 11.5076C73.615 12.414 72.6842 13.5655 71.2387 13.7615C71.0916 13.7615 70.9445 13.786 70.7977 13.786ZM70.7485 3.74134C70.6506 3.74134 70.528 3.76584 70.4302 3.83932C69.9892 4.05983 69.6216 4.59883 69.3278 5.40729C69.0091 6.31376 68.9113 7.29371 69.0336 8.2492C69.1318 8.86168 69.3033 9.44966 69.5727 9.98862C69.9158 10.6501 70.3323 11.0666 70.6506 11.0666C70.7733 11.0666 70.92 10.9931 71.0671 10.8706C72.3166 9.81713 72.39 8.05322 72.3166 7.12222C72.2432 6.28927 72.0228 5.43178 71.7041 4.67231C71.6063 4.47633 71.2387 3.74134 70.7485 3.74134ZM19.6433 13.7615C19.0308 13.7615 18.4184 13.6145 17.8059 13.296C16.3849 12.561 15.4294 11.2381 15.062 9.42517C14.768 8.0042 14.817 6.33825 15.2335 4.7213C15.6745 3.10436 17.0219 1.68341 18.6143 1.21793C18.9083 1.11993 19.2269 1.09543 19.5453 1.09543C20.5253 1.09543 21.5053 1.53642 22.2892 2.36939C23.3917 3.52085 24.1022 5.18678 24.2002 6.87725C24.2247 7.41621 24.2002 7.95521 24.1267 8.46968C23.8327 10.2336 23.0487 11.8506 22.0442 12.806C21.3583 13.4185 20.5253 13.7615 19.6433 13.7615ZM19.6188 3.76584C19.2513 3.76584 18.8593 4.15784 18.6389 4.50082C17.6589 5.97078 17.5609 8.15119 18.4428 9.84163C19.0308 10.9686 19.4228 11.0911 19.5698 11.0911C19.7413 11.0911 19.9373 10.9441 20.0598 10.8216C20.8438 10.0132 21.3093 8.54319 21.2358 7.12222C21.2358 7.02425 21.2113 6.92624 21.2113 6.82823C21.0888 5.70128 20.6723 4.23132 19.9128 3.83932C19.7903 3.79033 19.7168 3.76584 19.6188 3.76584ZM84.4439 13.6145C84.0518 13.6145 83.7087 13.5655 83.39 13.443C83.2188 13.3695 83.1207 13.247 83.0717 13.0755C82.9984 12.7571 83.1696 12.4631 83.7087 11.8016C83.7332 11.7526 83.7576 11.7281 83.7821 11.7281C83.9536 11.4831 83.9536 11.2136 83.9536 10.7726V10.6991C83.9536 10.2336 83.9536 9.79264 83.9536 9.32716L83.9292 5.92176C83.9292 5.72578 83.9292 5.52979 83.9292 5.33377C83.9292 4.67231 83.9536 3.98632 83.7821 3.37385C83.7332 3.20236 83.6843 3.10436 83.5616 2.95737C83.5372 2.90837 83.4882 2.83487 83.4393 2.78587C83.4149 2.76137 83.3904 2.71238 83.3411 2.68788C83.1451 2.49188 82.8268 2.1489 82.9739 1.70791C83.0962 1.29142 83.5127 1.09543 84.1741 1.09543C84.5417 1.09543 84.9337 1.14443 85.1787 1.19343C85.252 1.19343 85.3258 1.21793 85.3747 1.21793C85.5952 1.24242 85.8156 1.26692 86.0361 1.38942C86.526 1.65891 86.6731 2.24689 86.6486 2.66338C86.5997 3.49635 86.6242 4.30484 86.6486 5.16228C86.6486 5.5053 86.6731 5.82379 86.6731 6.16676C86.6975 7.41621 86.6975 8.6657 86.6486 9.91514C86.6486 10.0132 86.6242 10.1356 86.6242 10.2581C86.5997 10.4296 86.5753 10.7971 86.6242 10.9441C86.6731 10.9686 86.8202 11.0176 87.1385 11.0176C87.4816 11.0176 87.8492 10.9686 88.0452 10.9441H88.1186C89.0494 10.8216 89.613 10.3071 90.2744 9.47416C90.3726 9.35165 90.5194 9.27817 90.6665 9.27817C90.7643 9.27817 90.8869 9.30267 90.9603 9.37615C91.1319 9.52314 91.2056 9.76815 91.1074 9.96413C91.1074 10.0376 91.1074 10.1602 91.1074 10.2336C91.1074 10.3561 91.1074 10.4541 91.1074 10.5521C91.083 10.7971 91.0341 11.0421 90.9603 11.3361C90.8136 11.9241 90.642 12.5365 90.1766 13.002C89.6864 13.492 89.0739 13.541 88.6329 13.541C88.5106 13.541 88.4124 13.541 88.2902 13.541C87.8737 13.5165 87.4572 13.5165 87.0651 13.5165C86.6486 13.5165 86.2077 13.5165 85.7912 13.541C85.6196 13.541 85.4481 13.5655 85.252 13.59C85.0316 13.59 84.7622 13.6145 84.4439 13.6145ZM81.3324 13.59C81.1119 13.59 80.8914 13.5655 80.671 13.541C80.5239 13.5165 80.3768 13.5165 80.2296 13.5165C79.5682 13.492 78.9313 13.492 78.3436 13.492H77.339C76.9225 13.492 76.4571 13.492 75.9424 13.4675C75.6241 13.4675 75.477 13.296 75.4281 13.198C75.3788 13.1 75.281 12.8796 75.4281 12.6101C75.5259 12.414 75.673 12.2426 75.7709 12.1201C75.8201 12.0711 75.869 11.9976 75.918 11.9486C76.3834 11.3116 76.3345 10.2581 76.31 9.47416C76.2611 8.3962 76.2366 7.41621 76.2366 6.53424C76.2366 6.24024 76.2611 5.92176 76.2611 5.60327C76.2855 4.9663 76.3345 4.30484 76.1873 3.74134C76.0651 3.25136 75.7709 2.81037 75.5259 2.44288C75.281 2.0999 75.3544 1.83041 75.4281 1.68341C75.6241 1.26692 76.1384 1.26692 76.506 1.26692C76.5549 1.26692 76.6283 1.26692 76.6531 1.26692C76.947 1.24242 77.2408 1.21793 77.5595 1.21793C77.6084 1.21793 77.6573 1.21793 77.7066 1.21793C77.9022 1.21793 78.1227 1.24242 78.368 1.34042C78.7108 1.48742 78.9312 1.78141 79.005 2.17339C79.0539 2.46739 79.0294 2.73688 79.005 2.98187C79.005 3.07987 78.9805 3.15336 78.9805 3.25136C78.9805 3.59435 78.9805 3.93733 78.9805 4.37832C78.9805 4.74583 79.005 5.08881 79.005 5.45628C79.0294 5.87277 79.0294 6.26477 79.0294 6.68123C79.0539 7.56321 79.0294 8.44518 79.0294 9.32716C79.0294 9.76815 79.005 10.2091 78.9805 10.6501C78.9805 10.8706 79.005 10.9196 79.005 10.9441C79.1028 10.9686 79.2744 11.0176 79.5927 11.0176C79.8624 11.0176 80.1807 10.9931 80.3768 10.9686C81.2587 10.8706 81.9938 10.3806 82.6308 9.47416C82.7286 9.32716 82.8757 9.27817 83.0228 9.27817C83.1207 9.27817 83.2189 9.30267 83.3167 9.37615C83.5127 9.49865 83.5616 9.76815 83.4882 9.96413C83.4882 10.0132 83.4882 10.1111 83.4882 10.1602C83.4882 10.2581 83.4882 10.3316 83.4882 10.3806C83.4638 10.6501 83.4393 10.8951 83.39 11.1401C83.3167 11.6056 83.1944 12.2181 82.9002 12.7326C82.7531 13.0266 82.3859 13.5165 81.8223 13.639C81.6751 13.59 81.504 13.59 81.3324 13.59ZM54.7015 4.6968C54.4322 4.6968 54.1628 4.62332 53.9423 4.47633C53.8686 4.4273 53.7707 4.35383 53.6725 4.25582C53.5503 4.08433 53.5013 3.83932 53.5503 3.59435C53.5992 3.37385 53.6725 3.15336 53.7463 2.95737C53.8686 2.66338 53.9912 2.34489 54.1139 2.0509C54.1628 1.9529 54.1628 1.8794 54.1383 1.73241C54.1139 1.56092 54.0157 1.02193 54.6282 0.776942C54.6771 0.752441 54.7508 0.752441 54.7997 0.752441C54.8487 0.752441 54.922 0.752441 54.9713 0.776942C55.118 0.825939 55.3385 0.874937 55.5345 0.899437C55.9755 0.972936 56.4413 1.02193 56.6373 1.43842C56.7596 1.68341 56.7107 1.9774 56.5146 2.29589C56.4657 2.36939 56.392 2.44288 56.3431 2.49188C56.3186 2.51638 56.3186 2.51638 56.2942 2.54088C56.2452 2.61438 56.2208 2.68788 56.1715 2.78587C56.1226 2.93287 56.0737 3.07986 56.0248 3.25136C55.9999 3.32486 55.9755 3.39836 55.951 3.47185C55.8532 3.81483 55.7061 4.18234 55.3878 4.45184C55.2162 4.62332 54.9713 4.6968 54.7015 4.6968ZM42.0355 4.6968C42.011 4.6968 41.9621 4.6968 41.9132 4.6968C41.6679 4.67231 41.4474 4.5743 41.2514 4.52531C41.1781 4.50082 41.031 4.4273 40.9087 4.25582C40.8105 4.08433 40.8353 3.93733 40.8353 3.86385C40.8842 3.17786 41.1536 2.56538 41.3985 2.0509C41.4474 1.9529 41.4474 1.8794 41.423 1.73241C41.3985 1.56092 41.3007 1.02193 41.9132 0.776942C41.9621 0.752441 42.0355 0.752441 42.0844 0.752441C42.1337 0.752441 42.2071 0.752441 42.256 0.776942C42.4031 0.825939 42.6236 0.874937 42.8196 0.899437C43.2605 0.972936 43.7259 1.02193 43.922 1.43842C44.0446 1.68341 43.9957 1.9774 43.7997 2.29589C43.7749 2.34489 43.7504 2.36939 43.7015 2.39389C43.5792 2.49188 43.481 2.85937 43.3832 3.15336C43.2116 3.76584 42.9422 4.6968 42.0355 4.6968Z" fill="white"/>
<path d="M75.2302 4.43528C75.3848 4.43569 75.3848 4.43569 75.5425 4.4361C75.8691 4.43719 76.1956 4.43964 76.5222 4.44216C76.7446 4.44314 76.9673 4.44404 77.1897 4.44483C77.733 4.44698 78.2762 4.45036 78.8191 4.45439C78.8191 4.58366 78.8191 4.71294 78.8191 4.84617C78.8914 4.89865 78.9632 4.95117 79.0377 5.00531C79.3011 5.2379 79.3011 5.2379 79.4746 5.54394C79.7221 5.91419 79.9373 5.94941 80.265 6.02138C80.2887 6.33953 80.2432 5.79797 80.265 6.11642C80.2778 6.29366 80.4215 5.99651 80.4343 6.17914C80.449 6.64586 80.8542 6.1364 80.7338 6.52814C80.8354 6.51437 82.1263 5.96062 82.2309 5.94643C83.5665 5.78191 83.1873 6.18019 84.5263 6.17914C84.7682 6.17835 85.6306 6.1759 85.8728 6.17507C86.514 6.17327 86.5798 6.17466 87.2209 6.17507C87.6178 6.1753 87.9696 6.17519 88.3666 6.17507C91.457 6.1753 94.5963 8.15777 97.6848 8.35966C97.8158 8.36816 97.9471 8.37667 98.0818 8.38543C98.4418 8.40974 98.8015 8.43562 99.1616 8.46294C99.2616 8.4705 99.3621 8.47806 99.4652 8.48585C101.127 8.62577 101.127 8.62577 101.579 9.21658C101.789 9.64959 101.948 10.0182 102.076 10.5265C102.155 10.5265 102.235 10.5265 102.317 10.5265C102.396 10.8497 102.476 11.1729 102.558 11.5059C102.379 11.6028 102.379 11.6028 102.196 11.7017C102.196 11.8957 102.196 12.0896 102.196 12.2894C102.117 12.2894 102.037 12.2894 101.955 12.2894C101.955 12.4833 101.955 12.6772 101.955 12.877C100.925 13.3462 99.899 13.3491 98.8372 13.3789C98.4787 13.3904 98.1198 13.403 97.7612 13.4164C97.6747 13.4196 97.5885 13.4228 97.4993 13.426C96.9109 13.4507 96.3296 13.518 95.7442 13.6155C95.2449 13.6914 94.7445 13.7084 94.243 13.734C92.7723 13.8211 91.3053 13.984 89.8373 14.1502C89.7221 14.163 89.6066 14.176 89.4881 14.1892C89.1548 14.2266 88.8218 14.2647 88.4888 14.3032C88.3891 14.3144 88.289 14.3257 88.1863 14.3372C87.6299 14.4028 87.0832 14.5069 86.5313 14.6399C86.3695 14.6609 86.2077 14.6778 86.0455 14.6881C84.9529 14.7624 83.866 14.8794 82.7768 15.0385C89.0389 13.5645 88.9125 13.5827 88.7823 13.6014C88.4745 13.6457 89.7959 15.1564 89.4881 15.2013C89.6499 15.2007 88.0208 13.7346 88.1863 13.734C104.906 13.67 98.5178 15.1622 105.16 15.8702C105.268 15.8814 105.374 15.8927 105.485 15.9042C106.791 16.0517 106.791 16.0517 107.131 16.555C107.2 16.6946 107.269 16.8343 107.34 16.9781C107.445 17.1868 107.445 17.1868 107.552 17.3997C107.614 17.5232 107.676 17.6466 107.739 17.7738C107.819 17.9031 107.898 18.0324 107.98 18.1656C107.98 18.4242 107.98 18.6827 107.98 18.9491C107.801 19.0461 107.801 19.0461 107.619 19.145C107.579 19.2742 107.539 19.4035 107.498 19.5367C107.404 19.5327 107.309 19.5287 107.212 19.5245C106.898 19.5001 106.898 19.5001 106.655 19.7326C106.575 19.668 106.496 19.6033 106.414 19.5367C106.414 19.666 106.414 19.7953 106.414 19.9285C105.862 20.1542 105.33 20.1535 104.764 20.1488C104.672 20.1496 104.578 20.1503 104.483 20.1511C103.793 20.1492 103.793 20.1492 103.522 19.9285C103.522 20.0578 103.522 20.187 103.522 20.3202C103.442 20.3202 103.363 20.3202 103.281 20.3202C103.281 20.1909 103.281 20.0617 103.281 19.9285C102.324 19.9669 101.367 20.0077 100.411 20.0512C99.966 20.0714 99.5212 20.0909 99.0765 20.1085C96.7491 20.2012 94.4522 20.4353 92.1372 20.8386C91.1654 20.997 90.1906 21.1022 89.2161 21.2154C88.853 21.2596 88.5005 21.3181 88.1401 21.4029C87.5475 21.5387 86.9545 21.5633 86.3571 21.5968C85.7995 21.6363 85.2656 21.7359 84.7155 21.8926C83.7599 22.1438 82.8189 22.1263 81.8543 22.1076C81.6755 22.1056 81.4968 22.1038 81.3185 22.1022C80.8869 22.0979 80.4554 22.0912 80.0242 22.0831C80.2071 21.1785 80.2071 21.1785 80.4731 20.8367C80.6849 20.6645 80.8967 20.4924 81.1086 20.3202C79.677 20.2817 78.2631 20.2593 76.8409 20.5588C76.1825 20.6957 75.5286 20.7655 74.8653 20.8099C74.0217 20.8686 73.1827 20.9607 72.3422 21.0915C72.1996 21.1134 72.1996 21.1134 72.054 21.1359C71.5931 21.2101 71.1349 21.2933 70.6762 21.3982C69.5487 21.6519 68.4478 21.753 67.3097 21.7424C67.0354 21.7403 66.7611 21.7424 66.4868 21.7449C66.3104 21.7447 66.1339 21.7441 65.9578 21.7434C65.801 21.7429 65.6441 21.7425 65.4823 21.742C65.1027 21.6939 64.9221 21.6 64.6 21.2996C64.3201 21.2237 64.0387 21.1566 63.7568 21.1037C63.7268 20.926 63.697 20.7482 63.6662 20.5651C63.5059 19.8872 63.3535 19.6344 63.0337 19.145C62.8686 18.7582 62.7075 18.3666 62.5518 17.9697C62.472 17.7758 62.3926 17.5819 62.3106 17.3821C62.3524 16.7036 62.4351 16.3931 62.6722 15.8151C62.7515 15.8151 62.8313 15.8151 62.9133 15.8151C62.9133 15.6858 62.9133 15.5566 62.9133 15.4234C62.7587 15.471 62.7587 15.471 62.601 15.5197C62.1928 15.6185 61.8098 15.6446 61.3975 15.6452C61.2477 15.6455 61.0976 15.6458 60.9433 15.646C60.788 15.6452 60.6329 15.6445 60.473 15.6437C60.2432 15.6449 60.2432 15.6449 60.0084 15.646C57.6626 15.6421 57.6626 15.6421 57.1441 14.9826C57.0598 14.8049 56.9752 14.6271 56.8883 14.444C56.8013 14.2864 56.7141 14.1289 56.6245 13.9665C56.3875 13.4215 56.2919 12.9203 56.1651 12.2894C56.103 12.1965 56.041 12.1035 55.977 12.0078C55.6854 11.4927 55.6903 11.0113 55.6832 10.3306C56.0056 9.52743 56.3638 9.09765 56.8732 8.62897C56.9947 8.51508 57.1159 8.40123 57.2412 8.28389C58.2469 7.45816 59.3677 7.18693 60.473 6.92732C60.6269 6.89075 60.6269 6.89075 60.7842 6.85343C61.0111 6.79993 61.2379 6.7468 61.4648 6.69406C61.7116 6.63634 61.9584 6.57787 62.2052 6.51865C64.2911 6.01848 66.3781 5.63096 68.476 5.29803C68.5742 5.2823 68.6724 5.26657 68.774 5.25039C68.9583 5.22101 69.1427 5.19208 69.3271 5.16367C69.7669 5.0938 70.1924 4.98756 70.6251 4.84617C70.8279 4.82092 71.031 4.80282 71.2342 4.79105C71.3482 4.78375 71.4618 4.77641 71.5792 4.76889C71.697 4.76204 71.8144 4.75523 71.9355 4.74823C72.1688 4.73457 72.402 4.72031 72.6349 4.70538C72.738 4.69943 72.8407 4.69349 72.9465 4.68739C73.2877 4.65673 73.2877 4.65673 73.6685 4.5501C74.1933 4.43877 74.7016 4.42986 75.2302 4.43528Z" fill="black"/>
<path d="M68.4023 14.5774C68.4203 14.6043 68.3808 14.5003 68.2838 14.2654C67.8721 13.4481 67.5422 12.7642 67.2942 12.2135C66.8239 14.305 66.6057 15.3032 66.6396 15.2082C67.1257 15.0736 67.713 14.8632 68.4023 14.5774ZM68.219 16.6267C67.5614 16.8419 66.8398 17.0353 66.0542 17.2071C65.7483 18.2478 65.4492 18.8388 65.1568 18.98L64.6222 19.0295C64.1624 19.0778 63.9156 18.8594 63.8818 18.3742C63.9909 17.863 64.0214 17.7199 63.9724 17.9449C64.1214 17.5961 64.1045 17.3555 63.922 17.2233C63.7648 16.9361 63.7046 16.6483 63.7407 16.3597C63.8652 16.065 64.039 15.8735 64.2625 15.7854C64.4333 15.7493 64.4928 15.737 64.4412 15.7487C64.55 15.3423 64.67 14.8706 64.8017 14.3336C65.3927 12.0725 66.0515 10.1712 66.7777 8.62981L67.1859 8.58921C67.7698 8.52822 68.5934 9.79404 69.657 12.3867C70.0562 13.2007 70.3884 13.8603 70.6537 14.3655C71.5021 16.0748 71.9743 17.1517 72.0698 17.5962L72.1816 18.1564C71.931 19.0079 71.4622 19.2461 70.7752 18.8712C70.5468 18.3715 70.0935 17.4766 69.4151 16.1865C69.3681 16.2059 69.321 16.2253 69.274 16.2447L69.4102 16.205C69.0253 16.3447 68.8812 16.6468 68.9783 17.1114C69.0791 17.5193 69.037 17.7499 68.8515 17.8032C68.5708 17.9396 68.423 17.7565 68.4079 17.254C68.4395 17.0141 68.3767 16.805 68.219 16.6267ZM73.5819 11.3085C73.7102 12.0488 73.8107 12.622 73.8833 13.0278C75.5545 11.8635 76.3717 10.9905 76.3349 10.4089C76.3262 10.341 76.2472 10.3043 76.0978 10.2986C75.3367 10.3075 74.4981 10.6441 73.5819 11.3085ZM74.8243 18.7029C74.6749 18.9309 74.6489 19.2509 74.746 19.6631C74.8777 20.1011 74.8182 20.349 74.5684 20.4068C74.1926 20.562 73.9999 20.37 73.9905 19.8308C74.0289 19.401 73.9461 19.1369 73.7418 19.0384C73.7053 19.0369 73.6621 19.0238 73.612 18.9991C72.9698 18.5163 72.2177 15.6521 71.3554 10.4066C73.4954 8.80668 75.3499 8.04649 76.9188 8.12614C78.289 8.30831 78.926 8.97884 78.8301 10.1378C78.7454 10.6593 78.4346 11.2552 77.8974 11.9252C77.5035 12.4564 77.3469 13.1562 77.4278 14.0248C77.5674 14.5831 77.5129 14.8951 77.2638 14.9609C76.938 15.0844 76.7653 14.8044 76.7457 14.1208C76.7815 13.4818 76.6069 13.3187 76.222 13.6317C75.6644 14.126 75.0161 14.6487 74.2768 15.1999C74.3197 15.5797 74.565 16.5818 75.0128 18.2062C75.0331 18.3216 74.9702 18.4872 74.8243 18.7029ZM81.1048 10.7825C81.2331 11.5228 81.3336 12.0959 81.4062 12.5017C83.077 11.3374 83.8946 10.4645 83.8577 9.88287C83.8491 9.81499 83.7701 9.77823 83.6203 9.77259C82.8596 9.78147 82.0209 10.1181 81.1048 10.7825ZM82.3468 18.1768C82.1978 18.4048 82.1718 18.7249 82.2689 19.1371C82.4002 19.5751 82.3411 19.823 82.0913 19.8807C81.7154 20.0359 81.5228 19.8439 81.5134 19.3047C81.5518 18.875 81.4686 18.6109 81.2643 18.5124C81.2282 18.5109 81.1849 18.4978 81.1349 18.4731C80.4927 17.9902 79.7406 15.1261 78.8782 9.88061C81.0183 8.28062 82.8727 7.52047 84.4413 7.60012C85.8119 7.78226 86.4489 8.45279 86.3526 9.61175C86.2683 10.1333 85.9575 10.7291 85.4202 11.3992C85.0263 11.9303 84.8698 12.6302 84.9507 13.4987C85.0903 14.057 85.0357 14.369 84.7863 14.4348C84.4608 14.5583 84.2882 14.2783 84.2686 13.5948C84.3043 12.9557 84.1298 12.7927 83.7449 13.1057C83.1869 13.5999 82.5386 14.1226 81.7997 14.6739C81.8426 15.0536 82.0879 16.0557 82.5356 17.6802C82.556 17.7956 82.4931 17.9611 82.3468 18.1768ZM93.857 15.6497L93.8856 15.6235C93.4631 16.1526 93.2565 16.6807 93.2652 17.2079C93.29 17.9112 93.3431 18.5258 93.4243 19.052C93.4349 19.3211 93.3363 19.463 93.1278 19.4776C92.9111 19.4927 92.7877 19.3664 92.7569 19.0987C92.7862 17.8517 92.6512 17.1541 92.3505 17.0059C92.1 17.1685 91.8234 17.3309 91.5206 17.4931C90.0325 18.1651 89.0761 18.5463 88.6514 18.6364C87.8936 18.8062 87.4181 18.5111 87.2239 17.7512C87.0697 17.1577 87.359 16.6883 88.0923 16.3429C88.3869 16.1772 88.8 16.1242 89.332 16.1837C89.5099 16.1914 89.8809 16.0848 90.4457 15.8641C91.4288 15.3441 91.9047 14.9805 91.8742 14.7731C91.8761 14.6884 91.2504 14.5247 89.9968 14.282C89.6571 14.2654 89.4945 14.4178 89.5088 14.7391C89.5747 15.2784 89.4099 15.4813 89.0137 15.3478C88.7567 15.3054 88.6634 15.0621 88.733 14.6181C88.6856 14.2306 88.4802 13.969 88.116 13.8334L88.128 13.8325C87.1679 13.4082 86.6633 12.7586 86.614 11.8838C86.4417 9.76465 87.6446 8.03885 90.2222 6.70637C92.0593 6.07432 92.9965 6.65339 93.033 8.44361C93.0443 9.12366 92.6745 9.97339 91.9239 10.9928C90.8302 11.3069 90.3546 11.0199 90.4979 10.1316C90.9314 9.35602 91.1402 8.91236 91.124 8.80069C91.054 8.77737 90.9863 8.76198 90.9216 8.75442C90.3926 8.85186 89.7699 9.36874 89.0539 10.3051C88.7624 10.8009 88.6642 11.2691 88.7594 11.7096C88.8271 11.9869 90.0961 12.3312 92.5661 12.7426C93.553 12.9153 94.088 13.5346 94.1704 14.6005C94.1945 14.9453 94.0903 15.295 93.857 15.6497Z" fill="white"/>
<mask id="mask0_1502_1310" style="mask-type:luminance" maskUnits="userSpaceOnUse" x="62" y="6" width="33" height="17">
<path d="M94.8998 6.02344H62.7771V22.0887H94.8998V6.02344Z" fill="white"/>
<path d="M68.4023 14.5774C68.4203 14.6043 68.3808 14.5003 68.2838 14.2654C67.8721 13.4481 67.5422 12.7642 67.2942 12.2135C66.8239 14.305 66.6057 15.3032 66.6396 15.2082C67.1257 15.0736 67.713 14.8632 68.4023 14.5774ZM68.219 16.6267C67.5614 16.8419 66.8398 17.0353 66.0542 17.2071C65.7483 18.2478 65.4492 18.8388 65.1568 18.98L64.6222 19.0295C64.1624 19.0778 63.9156 18.8594 63.8818 18.3742C63.9909 17.863 64.0214 17.7199 63.9724 17.9449C64.1214 17.5961 64.1045 17.3555 63.922 17.2233C63.7648 16.9361 63.7046 16.6483 63.7407 16.3597C63.8652 16.065 64.039 15.8735 64.2625 15.7854C64.4333 15.7493 64.4928 15.737 64.4412 15.7487C64.55 15.3423 64.67 14.8706 64.8017 14.3336C65.3927 12.0725 66.0515 10.1712 66.7777 8.62981L67.1859 8.58921C67.7698 8.52822 68.5934 9.79404 69.657 12.3867C70.0562 13.2007 70.3884 13.8603 70.6537 14.3655C71.5021 16.0748 71.9743 17.1517 72.0698 17.5962L72.1816 18.1564C71.931 19.0079 71.4622 19.2461 70.7752 18.8712C70.5468 18.3715 70.0935 17.4766 69.4151 16.1865C69.3681 16.2059 69.321 16.2253 69.274 16.2447L69.4102 16.205C69.0253 16.3447 68.8812 16.6468 68.9783 17.1114C69.0791 17.5193 69.037 17.7499 68.8515 17.8032C68.5708 17.9396 68.423 17.7565 68.4079 17.254C68.4395 17.0141 68.3767 16.805 68.219 16.6267ZM73.5819 11.3085C73.7102 12.0488 73.8107 12.622 73.8833 13.0278C75.5545 11.8635 76.3717 10.9905 76.3349 10.4089C76.3262 10.341 76.2472 10.3043 76.0978 10.2986C75.3367 10.3075 74.4981 10.6441 73.5819 11.3085ZM74.8243 18.7029C74.6749 18.9309 74.6489 19.2509 74.746 19.6631C74.8777 20.1011 74.8182 20.349 74.5684 20.4068C74.1926 20.562 73.9999 20.37 73.9905 19.8308C74.0289 19.401 73.9461 19.1369 73.7418 19.0384C73.7053 19.0369 73.6621 19.0238 73.612 18.9991C72.9698 18.5163 72.2177 15.6521 71.3554 10.4066C73.4954 8.80668 75.3499 8.04649 76.9188 8.12614C78.289 8.30831 78.926 8.97884 78.8301 10.1378C78.7454 10.6593 78.4346 11.2552 77.8974 11.9252C77.5035 12.4564 77.3469 13.1562 77.4278 14.0248C77.5674 14.5831 77.5129 14.8951 77.2638 14.9609C76.938 15.0844 76.7653 14.8044 76.7457 14.1208C76.7815 13.4818 76.6069 13.3187 76.222 13.6317C75.6644 14.126 75.0161 14.6487 74.2768 15.1999C74.3197 15.5797 74.565 16.5818 75.0128 18.2062C75.0331 18.3216 74.9702 18.4872 74.8243 18.7029ZM81.1048 10.7825C81.2331 11.5228 81.3336 12.0959 81.4062 12.5017C83.077 11.3374 83.8946 10.4645 83.8577 9.88287C83.8491 9.81499 83.7701 9.77823 83.6203 9.77259C82.8596 9.78147 82.0209 10.1181 81.1048 10.7825ZM82.3468 18.1768C82.1978 18.4048 82.1718 18.7249 82.2689 19.1371C82.4002 19.5751 82.3411 19.823 82.0913 19.8807C81.7154 20.0359 81.5228 19.8439 81.5134 19.3047C81.5518 18.875 81.4686 18.6109 81.2643 18.5124C81.2282 18.5109 81.1849 18.4978 81.1349 18.4731C80.4927 17.9902 79.7406 15.1261 78.8782 9.88061C81.0183 8.28062 82.8727 7.52047 84.4413 7.60012C85.8119 7.78226 86.4489 8.45279 86.3526 9.61175C86.2683 10.1333 85.9575 10.7291 85.4202 11.3992C85.0263 11.9303 84.8698 12.6302 84.9507 13.4987C85.0903 14.057 85.0357 14.369 84.7863 14.4348C84.4608 14.5583 84.2882 14.2783 84.2686 13.5948C84.3043 12.9557 84.1298 12.7927 83.7449 13.1057C83.1869 13.5999 82.5386 14.1226 81.7997 14.6739C81.8426 15.0536 82.0879 16.0557 82.5356 17.6802C82.556 17.7956 82.4931 17.9611 82.3468 18.1768ZM93.857 15.6497L93.8856 15.6235C93.4631 16.1526 93.2565 16.6807 93.2652 17.2079C93.29 17.9112 93.3431 18.5258 93.4243 19.052C93.4349 19.3211 93.3363 19.463 93.1278 19.4776C92.9111 19.4927 92.7877 19.3664 92.7569 19.0987C92.7862 17.8517 92.6512 17.1541 92.3505 17.0059C92.1 17.1685 91.8234 17.3309 91.5206 17.4931C90.0325 18.1651 89.0761 18.5463 88.6514 18.6364C87.8936 18.8062 87.4181 18.5111 87.2239 17.7512C87.0697 17.1577 87.359 16.6883 88.0923 16.3429C88.3869 16.1772 88.8 16.1242 89.332 16.1837C89.5099 16.1914 89.8809 16.0848 90.4457 15.8641C91.4288 15.3441 91.9047 14.9805 91.8742 14.7731C91.8761 14.6884 91.2504 14.5247 89.9968 14.282C89.6571 14.2654 89.4945 14.4178 89.5088 14.7391C89.5747 15.2784 89.4099 15.4813 89.0137 15.3478C88.7567 15.3054 88.6634 15.0621 88.733 14.6181C88.6856 14.2306 88.4802 13.969 88.116 13.8334L88.128 13.8325C87.1679 13.4082 86.6633 12.7586 86.614 11.8838C86.4417 9.76465 87.6446 8.03885 90.2222 6.70637C92.0593 6.07432 92.9965 6.65339 93.033 8.44361C93.0443 9.12366 92.6745 9.97339 91.9239 10.9928C90.8302 11.3069 90.3546 11.0199 90.4979 10.1316C90.9314 9.35602 91.1402 8.91236 91.124 8.80069C91.054 8.77737 90.9863 8.76198 90.9216 8.75442C90.3926 8.85186 89.7699 9.36874 89.0539 10.3051C88.7624 10.8009 88.6642 11.2691 88.7594 11.7096C88.8271 11.9869 90.0961 12.3312 92.5661 12.7426C93.553 12.9153 94.088 13.5346 94.1704 14.6005C94.1945 14.9453 94.0903 15.295 93.857 15.6497Z" fill="black"/>
</mask>
<g mask="url(#mask0_1502_1310)">
<path d="M68.4023 14.5775L68.5588 14.473L68.4726 14.3445L68.33 14.4038L68.4023 14.5775ZM68.2838 14.2655L68.4576 14.1937L68.4549 14.1872L68.4516 14.1809L68.2838 14.2655ZM67.2943 12.2136L67.4658 12.1364L67.2344 11.6224L67.1107 12.1723L67.2943 12.2136ZM66.6396 15.2084L66.5892 15.0271L66.4947 15.0533L66.462 15.1456L66.6396 15.2084ZM68.219 16.6268L68.3601 16.5023L68.2781 16.4095L68.1607 16.448L68.219 16.6268ZM66.0542 17.2072L66.0139 17.0235L65.9048 17.0473L65.8736 17.1542L66.0542 17.2072ZM65.1568 18.9802L65.1742 19.1675L65.208 19.1644L65.2385 19.1495L65.1568 18.9802ZM64.6222 19.0296L64.6049 18.8423L64.6027 18.8425L64.6222 19.0296ZM63.8818 18.3744L63.6978 18.3351L63.6922 18.361L63.694 18.3875L63.8818 18.3744ZM63.9725 17.945L63.7885 17.9052L64.1455 18.0189L63.9725 17.945ZM63.922 17.2234L63.7569 17.3136L63.7772 17.3508L63.8114 17.3757L63.922 17.2234ZM63.7407 16.3598L63.5676 16.2867L63.5575 16.3106L63.5541 16.3364L63.7407 16.3598ZM64.2625 15.7855L64.2238 15.6015L64.2084 15.6047L64.1937 15.6105L64.2625 15.7855ZM64.4412 15.7488L64.2595 15.7003L64.1794 16.001L64.4826 15.9323L64.4412 15.7488ZM64.8017 14.3337L64.6196 14.2861L64.6188 14.289L64.8017 14.3337ZM66.7777 8.62993L66.7589 8.44276L66.6528 8.45333L66.6076 8.54976L66.7777 8.62993ZM67.1859 8.58934L67.2043 8.77652L67.2055 8.77644L67.1859 8.58934ZM69.657 12.3868L69.4828 12.4582L69.4855 12.464L69.4881 12.4696L69.657 12.3868ZM70.6537 14.3657L70.8219 14.282L70.82 14.2783L70.6537 14.3657ZM72.0698 17.5964L72.2546 17.5596L72.2538 17.5568L72.0698 17.5964ZM72.1816 18.1566L72.3622 18.2097L72.375 18.1653L72.3659 18.1198L72.1816 18.1566ZM70.7752 18.8713L70.604 18.9495L70.63 19.0064L70.6849 19.0364L70.7752 18.8713ZM69.4151 16.1866L69.5818 16.0991L69.5016 15.9473L69.3432 16.0127L69.4151 16.1866ZM69.274 16.2448L69.2025 16.0709L69.3267 16.4254L69.274 16.2448ZM69.4102 16.2051L69.4746 16.3819L69.3575 16.0245L69.4102 16.2051ZM68.9783 17.1115L68.7939 17.15L68.7947 17.1534L68.7954 17.1568L68.9783 17.1115ZM68.8515 17.8033L68.7996 17.6225L68.7838 17.627L68.7691 17.6341L68.8515 17.8033ZM68.4079 17.2541L68.2217 17.2296L68.2194 17.2446L68.2202 17.2598L68.4079 17.2541ZM68.2458 14.682C68.248 14.6851 68.2578 14.7003 68.2732 14.7155C68.2777 14.7198 68.3037 14.746 68.3466 14.7602C68.3718 14.7685 68.4139 14.7764 68.4625 14.7611C68.5136 14.7451 68.5468 14.7113 68.5656 14.6812C68.5957 14.6333 68.5945 14.5867 68.5945 14.5809C68.5945 14.5662 68.593 14.5544 68.5919 14.549C68.59 14.5372 68.5874 14.5274 68.5863 14.5226C68.5806 14.5035 68.5716 14.478 68.5618 14.4529C68.5411 14.3982 68.5061 14.3113 68.4576 14.1937L68.1099 14.3373C68.1581 14.4547 68.1916 14.5372 68.21 14.5865C68.2149 14.5987 68.2183 14.6081 68.2209 14.6151C68.2236 14.6229 68.2239 14.6251 68.2236 14.6237C68.2236 14.6237 68.2221 14.6177 68.2206 14.6087C68.2198 14.6046 68.2183 14.594 68.2183 14.5801C68.2183 14.5753 68.2172 14.5292 68.2469 14.4817C68.2653 14.4518 68.2988 14.4182 68.3496 14.4021C68.3981 14.387 68.4399 14.3948 68.4647 14.403C68.5072 14.4171 68.5328 14.4428 68.5366 14.4465C68.5449 14.4548 68.5505 14.4621 68.5528 14.4651C68.5558 14.4687 68.5577 14.4716 68.5588 14.473L68.2458 14.682ZM68.4516 14.1809C68.0407 13.365 67.7123 12.6837 67.4658 12.1364L67.1227 12.2908C67.3721 12.845 67.7032 13.5316 68.1156 14.3501L68.4516 14.1809ZM67.1107 12.1723C66.8755 13.2182 66.7032 13.9911 66.5941 14.4908C66.5395 14.7404 66.5004 14.9227 66.4771 15.037C66.4658 15.0933 66.4575 15.1359 66.453 15.1622C66.4519 15.1689 66.4507 15.1762 66.45 15.1832C66.4496 15.1854 66.4473 15.2031 66.4481 15.2231C66.4485 15.2288 66.4492 15.2425 66.4537 15.2594C66.4552 15.2656 66.4677 15.3234 66.5237 15.3653C66.5595 15.3918 66.605 15.4062 66.6531 15.4019C66.696 15.3982 66.7269 15.3808 66.7431 15.3695C66.7735 15.3488 66.7897 15.3244 66.7931 15.3189C66.804 15.3028 66.81 15.2884 66.8112 15.2854C66.8138 15.2797 66.8157 15.2746 66.8168 15.2712L66.462 15.1456C66.4624 15.1451 66.4631 15.1425 66.4647 15.1387C66.4654 15.1376 66.4707 15.1245 66.4808 15.1093C66.4842 15.1042 66.5 15.0801 66.5301 15.0595C66.5463 15.0482 66.5771 15.0309 66.62 15.0272C66.6678 15.0229 66.7133 15.0373 66.7487 15.0637C66.8048 15.1056 66.8172 15.1631 66.8187 15.1689C66.8228 15.1854 66.8236 15.1986 66.824 15.2036C66.8247 15.2149 66.824 15.2233 66.8236 15.2248C66.8236 15.2276 66.8232 15.2293 66.8232 15.2293C66.8232 15.2294 66.8236 15.2277 66.8243 15.2233C66.8273 15.205 66.8341 15.1689 66.8458 15.1123C66.8684 15.0008 66.9071 14.8206 66.9617 14.5711C67.0708 14.0726 67.2427 13.3005 67.4779 12.2549L67.1107 12.1723ZM66.6896 15.3896C67.1859 15.2522 67.7811 15.0388 68.4741 14.7512L68.33 14.4038C67.6453 14.6879 67.0651 14.8952 66.5892 15.0271L66.6896 15.3896ZM68.1607 16.448C67.5098 16.661 66.7942 16.8528 66.0139 17.0235L66.0941 17.391C66.8853 17.2181 67.6129 17.023 68.2777 16.8056L68.1607 16.448ZM65.8736 17.1542C65.722 17.6695 65.5745 18.0651 65.4323 18.346C65.2855 18.6365 65.161 18.7691 65.0748 18.8108L65.2385 19.1495C65.4447 19.0499 65.6159 18.8164 65.7682 18.5159C65.9251 18.2058 66.0801 17.7856 66.2344 17.2603L65.8736 17.1542ZM65.1395 18.7929L64.6049 18.8423L64.6399 19.2169L65.1742 19.1675L65.1395 18.7929ZM64.6027 18.8425C64.4036 18.8634 64.287 18.8232 64.217 18.7611C64.1448 18.6973 64.0846 18.5778 64.0691 18.3612L63.694 18.3875C63.7129 18.6561 63.793 18.8883 63.9676 19.0429C64.1444 19.1993 64.3814 19.2441 64.6422 19.2167L64.6027 18.8425ZM64.0658 18.4137C64.1203 18.1582 64.1553 17.9943 64.1704 17.9226C64.1741 17.9047 64.1767 17.8921 64.1783 17.8852C64.1786 17.8834 64.179 17.8817 64.179 17.8802C64.1794 17.8795 64.1794 17.8784 64.1798 17.8773C64.1798 17.8767 64.1801 17.8756 64.1801 17.8744C64.1805 17.8739 64.1809 17.8704 64.1816 17.8659C64.1816 17.8656 64.1828 17.8564 64.1831 17.8449C64.1831 17.8358 64.179 17.8024 64.1722 17.7786C64.112 17.6945 63.9269 17.6666 63.8532 17.7185C63.84 17.7354 63.825 17.7611 63.8216 17.7686C63.8201 17.7726 63.8178 17.7791 63.8167 17.7816C63.8152 17.7861 63.8144 17.7896 63.8141 17.7908C63.8133 17.7936 63.8125 17.7958 63.8125 17.7964C63.8122 17.7975 63.8118 17.7983 63.8118 17.7988C63.8114 17.8007 63.811 17.8026 63.8107 17.804C63.808 17.8152 63.8005 17.8494 63.7885 17.9052L64.1564 17.9849C64.1685 17.9282 64.1756 17.8959 64.1779 17.8867C64.1779 17.8854 64.1779 17.8859 64.1779 17.8867C64.1779 17.8869 64.1775 17.8871 64.1775 17.8879C64.1771 17.8884 64.1767 17.8905 64.176 17.8932C64.1756 17.8943 64.1745 17.8978 64.173 17.9022C64.1722 17.9047 64.17 17.9112 64.1681 17.9151C64.1647 17.9227 64.15 17.9484 64.1369 17.9653C64.0631 18.0172 63.878 17.9893 63.8178 17.9051C63.811 17.8814 63.8069 17.848 63.8069 17.839C63.8069 17.8274 63.8084 17.8183 63.8084 17.818C63.8095 17.8091 63.8114 17.7999 63.8095 17.8092C63.8084 17.8151 63.8062 17.8267 63.8024 17.8447C63.787 17.916 63.7524 18.0794 63.6978 18.3351L64.0658 18.4137ZM64.1455 18.0189C64.2257 17.8312 64.2704 17.6522 64.2591 17.4899C64.2471 17.3185 64.1722 17.1724 64.0323 17.0711L63.8114 17.3757C63.8543 17.4067 63.8791 17.4469 63.8837 17.5161C63.8893 17.5944 63.8682 17.7101 63.7994 17.8712L64.1455 18.0189ZM64.0872 17.1331C63.9465 16.8761 63.8968 16.6278 63.9273 16.3833L63.5541 16.3364C63.5123 16.669 63.5834 16.9964 63.7569 17.3136L64.0872 17.1331ZM63.9141 16.433C64.0255 16.1688 64.1692 16.0245 64.3318 15.9605L64.1937 15.6105C63.9089 15.7227 63.7046 15.9614 63.5676 16.2867L63.9141 16.433ZM64.3017 15.9695C64.3871 15.9515 64.4439 15.9395 64.4732 15.9335C64.4804 15.932 64.4856 15.931 64.4887 15.9304C64.4905 15.93 64.4909 15.9299 64.4909 15.93C64.4909 15.93 64.4898 15.9301 64.4887 15.9304C64.4879 15.9305 64.4864 15.9307 64.4845 15.931C64.4834 15.9311 64.4785 15.9318 64.4721 15.9322C64.4698 15.9324 64.4619 15.9329 64.4514 15.9325C64.4469 15.9323 64.436 15.9317 64.4224 15.9291C64.4168 15.928 64.375 15.9206 64.3359 15.8865C64.316 15.8666 64.2836 15.8123 64.2742 15.7783C64.2712 15.7439 64.2813 15.6838 64.2915 15.6593C64.3137 15.6158 64.3468 15.5938 64.3513 15.5904C64.3694 15.5778 64.3859 15.5713 64.3874 15.5707C64.3961 15.5672 64.4032 15.565 64.404 15.5648C64.4063 15.5641 64.4081 15.5636 64.4089 15.5634C64.4115 15.5626 64.413 15.5623 64.4115 15.5626C64.41 15.5631 64.4063 15.5639 64.3999 15.5653L64.4826 15.9323C64.4894 15.9308 64.495 15.9295 64.4992 15.9285C64.5007 15.9282 64.5045 15.9273 64.5082 15.9262C64.5093 15.9259 64.5116 15.9254 64.5139 15.9246C64.515 15.9243 64.5221 15.9221 64.5312 15.9185C64.5327 15.9178 64.5488 15.9114 64.5669 15.8988C64.5718 15.8954 64.6049 15.8733 64.6267 15.8299C64.6373 15.8054 64.6474 15.7452 64.6444 15.7108C64.6346 15.6768 64.6023 15.6225 64.5827 15.6026C64.5436 15.5685 64.5014 15.5612 64.4958 15.5601C64.4826 15.5574 64.4717 15.5568 64.4668 15.5566C64.4567 15.5562 64.4488 15.5567 64.4461 15.5569C64.4397 15.5573 64.4345 15.558 64.4333 15.5582C64.4311 15.5585 64.4296 15.5588 64.4285 15.559C64.4262 15.5593 64.4243 15.5596 64.4232 15.5598C64.4209 15.5603 64.4183 15.5608 64.416 15.5612C64.4115 15.5622 64.4051 15.5634 64.3976 15.565C64.3671 15.5712 64.3088 15.5834 64.2238 15.6015L64.3017 15.9695ZM64.623 15.7974C64.7321 15.3894 64.8525 14.9164 64.9842 14.3785L64.6188 14.289C64.4875 14.825 64.3679 15.2954 64.2595 15.7003L64.623 15.7974ZM64.9838 14.3813C65.573 12.1276 66.228 10.238 66.9477 8.71011L66.6076 8.54976C65.8751 10.1047 65.2129 12.0176 64.6196 14.2861L64.9838 14.3813ZM66.7965 8.81715L67.2043 8.77652L67.1671 8.40212L66.7589 8.44276L66.7965 8.81715ZM67.2055 8.77644C67.2769 8.76895 67.3876 8.79932 67.5463 8.93529C67.7029 9.06919 67.8823 9.28598 68.084 9.59555C68.4862 10.2136 68.9527 11.1652 69.4828 12.4582L69.8312 12.3154C69.2977 11.0157 68.8207 10.0382 68.3993 9.39035C68.1889 9.06705 67.9865 8.81674 67.7909 8.64946C67.5979 8.48422 67.3868 8.37921 67.1663 8.40224L67.2055 8.77644ZM69.4881 12.4696C69.888 13.2844 70.221 13.9458 70.487 14.453L70.82 14.2783C70.5562 13.7752 70.2248 13.1172 69.826 12.3039L69.4881 12.4696ZM70.4851 14.4494C70.9088 15.3027 71.2376 15.9963 71.472 16.5308C71.7083 17.0703 71.8426 17.4345 71.8859 17.6359L72.2538 17.5568C72.2015 17.3136 72.0522 16.9172 71.8163 16.3798C71.5785 15.8374 71.247 15.1379 70.8219 14.282L70.4851 14.4494ZM71.8855 17.6331L71.9972 18.1934L72.3659 18.1198L72.2546 17.5596L71.8855 17.6331ZM72.001 18.1034C71.881 18.5119 71.7218 18.7223 71.5567 18.8061C71.4013 18.8853 71.1823 18.8793 70.8655 18.7062L70.6849 19.0364C71.0547 19.2383 71.4141 19.3007 71.7271 19.1416C72.0311 18.9872 72.2316 18.6527 72.3622 18.2097L72.001 18.1034ZM70.9464 18.7931C70.7154 18.288 70.2598 17.3888 69.5818 16.0991L69.2484 16.2742C69.9272 17.5646 70.3783 18.4552 70.604 18.9495L70.9464 18.7931ZM69.3432 16.0127C69.3414 16.0136 69.341 16.0137 69.3387 16.0146C69.3368 16.0154 69.3365 16.0156 69.3346 16.0164C69.3327 16.0172 69.332 16.0174 69.3301 16.0182C69.3282 16.019 69.3278 16.0192 69.3256 16.02C69.3237 16.0208 69.3233 16.021 69.3214 16.0218C69.3192 16.0227 69.3188 16.0229 69.3169 16.0236C69.315 16.0245 69.3143 16.0247 69.3124 16.0255C69.3105 16.0263 69.3101 16.0265 69.3083 16.0273C69.306 16.0281 69.3056 16.0283 69.3037 16.0291C69.3019 16.0299 69.3011 16.0301 69.2992 16.0309C69.2973 16.0317 69.297 16.032 69.2947 16.0327C69.2928 16.0336 69.2925 16.0338 69.2906 16.0346C69.2883 16.0354 69.2879 16.0356 69.2861 16.0364C69.2842 16.0372 69.2834 16.0374 69.2815 16.0382C69.2797 16.039 69.2793 16.0392 69.2774 16.04C69.2751 16.0408 69.2748 16.041 69.2729 16.0419C69.2571 16.0483 69.2533 16.0499 69.2375 16.0564C69.2221 16.0628 69.218 16.0645 69.2025 16.0709L69.3459 16.4187C69.347 16.4183 69.347 16.4182 69.3481 16.4178C69.3493 16.4174 69.3493 16.4173 69.3504 16.4169C69.3523 16.4161 69.3526 16.4159 69.3549 16.4151C69.3568 16.4143 69.3572 16.4141 69.359 16.4132C69.3613 16.4124 69.3617 16.4123 69.3636 16.4114C69.3654 16.4106 69.3662 16.4104 69.3681 16.4096C69.37 16.4088 69.3703 16.4086 69.3722 16.4078C69.3745 16.407 69.3748 16.4068 69.3767 16.406C69.3786 16.4052 69.3794 16.405 69.3812 16.4042C69.3831 16.4033 69.3835 16.4032 69.3858 16.4023C69.3876 16.4015 69.388 16.4013 69.3899 16.4005C69.3918 16.3997 69.3925 16.3995 69.3944 16.3987C69.3963 16.3979 69.3967 16.3977 69.3989 16.3969C69.4008 16.3961 69.4012 16.3959 69.4031 16.3951C69.4053 16.3942 69.4057 16.3941 69.4076 16.3933C69.4095 16.3924 69.4102 16.3922 69.4121 16.3914C69.414 16.3906 69.4144 16.3904 69.4166 16.3896C69.432 16.3831 69.4362 16.3815 69.4516 16.375C69.4674 16.3686 69.4712 16.367 69.487 16.3605L69.3432 16.0127ZM69.3267 16.4254L69.4629 16.3857L69.3575 16.0245L69.2213 16.0642L69.3267 16.4254ZM69.3463 16.0283C69.1183 16.111 68.9414 16.2503 68.8436 16.4555C68.748 16.6565 68.7405 16.8938 68.7939 17.15L69.1623 17.0731C69.119 16.8647 69.1352 16.7187 69.1833 16.6175C69.2296 16.5205 69.3173 16.4389 69.4746 16.3819L69.3463 16.0283ZM68.7954 17.1568C68.844 17.3521 68.8511 17.4807 68.8372 17.5565C68.8308 17.592 68.821 17.6072 68.8169 17.6123C68.8143 17.6156 68.8109 17.6192 68.7996 17.6225L68.903 17.9841C68.9847 17.9607 69.0562 17.9156 69.1104 17.8479C69.1634 17.782 69.1927 17.7041 69.2074 17.6243C69.2356 17.4696 69.2134 17.2788 69.1608 17.0663L68.7954 17.1568ZM68.7691 17.6341C68.7172 17.6593 68.692 17.6593 68.6863 17.6587C68.6848 17.6585 68.6845 17.6584 68.6845 17.6584C68.6845 17.6584 68.6848 17.6585 68.6848 17.6585C68.6848 17.6585 68.6841 17.6582 68.6829 17.657C68.6814 17.6558 68.6796 17.6537 68.6766 17.6502C68.6449 17.611 68.6036 17.4966 68.596 17.2485L68.2202 17.2598C68.2277 17.5143 68.2676 17.7426 68.3838 17.8865C68.4489 17.9671 68.5377 18.021 68.6453 18.0327C68.7465 18.0437 68.8451 18.0155 68.9335 17.9724L68.7691 17.6341ZM68.5945 17.2787C68.6333 16.9859 68.5543 16.7222 68.3601 16.5023L68.0783 16.7513C68.1991 16.8881 68.2461 17.0426 68.2217 17.2296L68.5945 17.2787ZM73.5819 11.3086L73.4713 11.1563L73.3765 11.2251L73.3965 11.3407L73.5819 11.3086ZM73.8833 13.0279L73.6982 13.0611L73.7501 13.3501L73.9909 13.1823L73.8833 13.0279ZM76.3349 10.409L76.5226 10.3972L76.5222 10.3911L76.5215 10.3849L76.3349 10.409ZM76.0978 10.2987L76.1046 10.1108L76.1001 10.1106L76.0956 10.1107L76.0978 10.2987ZM74.8243 18.703L74.6681 18.5975L74.6666 18.6L74.8243 18.703ZM74.746 19.6633L74.5632 19.7065L74.5643 19.7119L74.5662 19.7173L74.746 19.6633ZM74.5684 20.4069L74.5263 20.2236L74.5112 20.2271L74.4969 20.233L74.5684 20.4069ZM73.9905 19.8309L73.8032 19.8142L73.802 19.8242L73.8024 19.8342L73.9905 19.8309ZM73.7418 19.0385L73.8235 18.8691L73.7881 18.8522L73.7494 18.8506L73.7418 19.0385ZM73.612 18.9993L73.4988 19.1496L73.5131 19.1602L73.5289 19.168L73.612 18.9993ZM71.3554 10.4068L71.2429 10.2561L71.1511 10.3245L71.1699 10.4373L71.3554 10.4068ZM76.9188 8.12627L76.9436 7.9398L76.9357 7.93879L76.9282 7.93841L76.9188 8.12627ZM78.8301 10.1379L79.0156 10.168L79.0167 10.1607L79.0174 10.1535L78.8301 10.1379ZM77.8974 11.9254L77.7507 11.8077L77.7484 11.8105L77.7461 11.8133L77.8974 11.9254ZM77.4278 14.0249L77.2405 14.0424L77.242 14.0567L77.2454 14.0706L77.4278 14.0249ZM77.2638 14.961L77.2156 14.7791L77.2062 14.7816L77.1968 14.7851L77.2638 14.961ZM76.7457 14.121L76.558 14.1104L76.5572 14.1184L76.5576 14.1264L76.7457 14.121ZM76.222 13.6319L76.1035 13.4859L76.1001 13.4884L76.0971 13.4911L76.222 13.6319ZM74.2768 15.2001L74.1644 15.0493L74.0778 15.1138L74.0899 15.2211L74.2768 15.2001ZM75.0128 18.2063L75.1983 18.174L75.1968 18.1651L75.1941 18.1563L75.0128 18.2063ZM73.3965 11.3407C73.5247 12.0812 73.6256 12.6547 73.6982 13.0611L74.0684 12.9947C73.9958 12.5894 73.8953 12.0167 73.767 11.2765L73.3965 11.3407ZM73.9909 13.1823C74.8307 12.597 75.4654 12.079 75.8868 11.6285C76.0978 11.4032 76.2604 11.1899 76.368 10.9888C76.4756 10.7884 76.535 10.5893 76.5226 10.3972L76.1471 10.4209C76.1535 10.5196 76.1242 10.6477 76.0365 10.8109C75.9492 10.9735 75.81 11.1602 75.6121 11.3714C75.2167 11.7939 74.6068 12.2945 73.7757 12.8736L73.9909 13.1823ZM76.5215 10.3849C76.5064 10.2693 76.4282 10.1971 76.3484 10.16C76.2754 10.1261 76.1893 10.114 76.1046 10.1108L76.0907 10.4867C76.1212 10.4879 76.1449 10.4905 76.1622 10.4938C76.1802 10.4971 76.1881 10.5004 76.1896 10.5012C76.1911 10.5019 76.1821 10.498 76.1712 10.485C76.1592 10.4705 76.1509 10.4518 76.1483 10.4332L76.5215 10.3849ZM76.0956 10.1107C75.281 10.1201 74.4048 10.4797 73.4713 11.1563L73.6922 11.4609C74.5918 10.8088 75.3928 10.4951 76.0997 10.4869L76.0956 10.1107ZM74.6666 18.6C74.477 18.89 74.4605 19.2714 74.5632 19.7065L74.9292 19.62C74.8374 19.2307 74.8728 18.972 74.9815 18.806L74.6666 18.6ZM74.5662 19.7173C74.6286 19.9262 74.6354 20.0588 74.6173 20.1339C74.6094 20.1678 74.5974 20.1846 74.588 20.1942C74.5782 20.2037 74.5609 20.2156 74.5263 20.2236L74.6109 20.5902C74.7012 20.5693 74.7848 20.5285 74.8525 20.4617C74.9202 20.3948 74.9616 20.3115 74.9834 20.2214C75.0244 20.0486 74.9951 19.8383 74.9262 19.6092L74.5662 19.7173ZM74.4969 20.233C74.3389 20.2982 74.2923 20.2634 74.275 20.246C74.2343 20.2056 74.1832 20.09 74.1786 19.8276L73.8024 19.8342C73.8073 20.111 73.8573 20.3609 74.0093 20.5125C74.1847 20.6872 74.4225 20.6707 74.6403 20.5807L74.4969 20.233ZM74.1779 19.8477C74.1982 19.6204 74.1884 19.4193 74.1365 19.2542C74.0831 19.0843 73.9823 18.9458 73.8235 18.8691L73.6598 19.208C73.7053 19.2298 73.7479 19.2726 73.7776 19.3669C73.8088 19.4659 73.8212 19.6117 73.8032 19.8142L74.1779 19.8477ZM73.7494 18.8506C73.7505 18.8506 73.7464 18.8505 73.7366 18.8476C73.7268 18.8446 73.7132 18.8394 73.6952 18.8306L73.5289 19.168C73.591 19.1987 73.6613 19.2235 73.7339 19.2265L73.7494 18.8506ZM73.7249 18.8489C73.609 18.7615 73.4574 18.5356 73.2836 18.1183C73.1139 17.7113 72.9352 17.1534 72.7482 16.4412C72.3742 15.0176 71.972 12.997 71.5408 10.3762L71.1699 10.4373C71.6014 13.0621 72.0059 15.0962 72.3844 16.5368C72.5732 17.2566 72.7572 17.8332 72.9363 18.263C73.1109 18.6824 73.2941 18.9956 73.4988 19.1496L73.7249 18.8489ZM71.4679 10.5574C73.5955 8.96689 75.4059 8.23782 76.909 8.31416L76.9282 7.93841C75.2942 7.85541 73.3957 8.64668 71.2429 10.2561L71.4679 10.5574ZM76.894 8.31277C77.5569 8.40084 78.0106 8.60341 78.2879 8.89537C78.5603 9.18218 78.6875 9.58155 78.6423 10.1224L79.0174 10.1535C79.0686 9.53531 78.9253 9.01998 78.5607 8.63622C78.201 8.25765 77.6509 8.03386 76.9436 7.9398L76.894 8.31277ZM78.6442 10.1079C78.5675 10.5832 78.2789 11.1488 77.7507 11.8077L78.0441 12.043C78.5904 11.3618 78.9238 10.7357 79.0156 10.168L78.6442 10.1079ZM77.7461 11.8133C77.3169 12.3922 77.1566 13.1427 77.2405 14.0424L77.6152 14.0075C77.5373 13.17 77.6901 12.5208 78.0486 12.0374L77.7461 11.8133ZM77.2454 14.0706C77.3131 14.3417 77.3266 14.5284 77.3063 14.6451C77.2965 14.7012 77.2804 14.7315 77.2676 14.7476C77.2563 14.7614 77.2416 14.7722 77.2156 14.7791L77.3116 15.1429C77.4102 15.1169 77.4959 15.064 77.5606 14.9834C77.6239 14.905 77.6592 14.8101 77.6769 14.7101C77.7111 14.5149 77.6822 14.2664 77.6103 13.9792L77.2454 14.0706ZM77.1968 14.7851C77.1419 14.806 77.1148 14.8017 77.1043 14.7985C77.0956 14.7957 77.0757 14.7866 77.0501 14.7448C76.9914 14.65 76.9432 14.4528 76.9338 14.1156L76.5576 14.1264C76.5674 14.4726 76.6155 14.7572 76.7295 14.9423C76.7901 15.0406 76.8759 15.1211 76.9918 15.1574C77.1058 15.1933 77.2224 15.1777 77.3304 15.1369L77.1968 14.7851ZM76.9335 14.1315C76.9429 13.9646 76.9391 13.8188 76.9184 13.6989C76.8985 13.5839 76.8582 13.4644 76.7702 13.3819C76.6682 13.2869 76.5399 13.2733 76.4225 13.3046C76.3149 13.3335 76.2073 13.4012 76.1035 13.4859L76.3405 13.7778C76.4289 13.706 76.4876 13.6767 76.52 13.6681C76.5426 13.662 76.5275 13.6704 76.5132 13.6569C76.5121 13.6559 76.5328 13.6775 76.5478 13.763C76.5617 13.8436 76.5663 13.9578 76.558 14.1104L76.9335 14.1315ZM76.0971 13.4911C75.5444 13.9811 74.9003 14.5005 74.1644 15.0493L74.3893 15.3509C75.1317 14.7971 75.7844 14.2711 76.3469 13.7726L76.0971 13.4911ZM74.0899 15.2211C74.1346 15.6191 74.3852 16.6382 74.8314 18.2563L75.1941 18.1563C74.7445 16.5256 74.5045 15.5405 74.4638 15.179L74.0899 15.2211ZM74.8277 18.2387C74.8295 18.2503 74.8303 18.2841 74.8051 18.3502C74.7806 18.4146 74.7362 18.4966 74.6681 18.5975L74.9797 18.8085C75.0575 18.6937 75.1181 18.5851 75.1569 18.4839C75.1945 18.3845 75.2163 18.2779 75.1983 18.174L74.8277 18.2387ZM81.1048 10.7826L80.9942 10.6302L80.8994 10.6991L80.9193 10.8147L81.1048 10.7826ZM81.4062 12.5019L81.2211 12.535L81.2726 12.8241L81.5138 12.6562L81.4062 12.5019ZM83.8577 9.88299L84.0455 9.87118L84.0451 9.86501L84.0444 9.85888L83.8577 9.88299ZM83.6203 9.77272L83.6275 9.58471L83.623 9.58452L83.6181 9.5846L83.6203 9.77272ZM82.3468 18.177L82.191 18.0715L82.1895 18.0739L82.3468 18.177ZM82.2689 19.1372L82.086 19.1804L82.0872 19.1859L82.0887 19.1912L82.2689 19.1372ZM82.0913 19.8808L82.0492 19.6975L82.0337 19.701L82.0194 19.7069L82.0913 19.8808ZM81.5134 19.3048L81.326 19.2881L81.3249 19.2981L81.3253 19.3082L81.5134 19.3048ZM81.2643 18.5125L81.3464 18.343L81.311 18.3261L81.2722 18.3245L81.2643 18.5125ZM81.1349 18.4732L81.0217 18.6236L81.036 18.6341L81.0518 18.6419L81.1349 18.4732ZM78.8782 9.88074L78.7654 9.73005L78.6739 9.79849L78.6924 9.91125L78.8782 9.88074ZM84.4413 7.60025L84.4661 7.41375L84.4586 7.41273L84.4511 7.41235L84.4413 7.60025ZM86.3526 9.61188L86.5384 9.6419L86.5396 9.63472L86.5403 9.62742L86.3526 9.61188ZM85.4203 11.3993L85.2735 11.2817L85.2713 11.2844L85.269 11.2873L85.4203 11.3993ZM84.9507 13.4989L84.7633 13.5163L84.7645 13.5306L84.7682 13.5446L84.9507 13.4989ZM84.7863 14.4349L84.7385 14.253L84.7291 14.2556L84.7197 14.2591L84.7863 14.4349ZM84.2686 13.5949L84.0805 13.5844L84.0801 13.5924L84.0805 13.6003L84.2686 13.5949ZM83.7449 13.1058L83.626 12.9598L83.623 12.9623L83.62 12.965L83.7449 13.1058ZM81.7997 14.674L81.6872 14.5232L81.6007 14.5877L81.6127 14.695L81.7997 14.674ZM82.5356 17.6803L82.7211 17.6479L82.7196 17.639L82.717 17.6303L82.5356 17.6803ZM80.9193 10.8147C81.0476 11.5552 81.1481 12.1287 81.2211 12.535L81.5913 12.4687C81.5187 12.0634 81.4182 11.4907 81.2899 10.7504L80.9193 10.8147ZM81.5138 12.6562C82.3535 12.071 82.9879 11.553 83.4096 11.1025C83.6207 10.8772 83.7829 10.6638 83.8909 10.4628C83.9985 10.2623 84.0575 10.0632 84.0455 9.87118L83.67 9.89485C83.6764 9.99357 83.647 10.1217 83.5594 10.2849C83.4721 10.4475 83.3329 10.6342 83.135 10.8454C82.7396 11.2678 82.1297 11.7684 81.2986 12.3475L81.5138 12.6562ZM84.0444 9.85888C84.0293 9.74322 83.951 9.67102 83.8713 9.63392C83.7983 9.60006 83.7121 9.58791 83.6275 9.58471L83.6132 9.96069C83.644 9.96185 83.6674 9.96449 83.685 9.96776C83.7027 9.97107 83.711 9.97438 83.7125 9.97513C83.714 9.97581 83.705 9.9719 83.6941 9.95892C83.6817 9.9444 83.6738 9.92581 83.6711 9.90711L84.0444 9.85888ZM83.6181 9.5846C82.8039 9.59412 81.9276 9.95361 80.9942 10.6302L81.215 10.9349C82.1146 10.2828 82.9156 9.96908 83.6226 9.9608L83.6181 9.5846ZM82.1895 18.0739C81.9995 18.364 81.9833 18.7453 82.086 19.1804L82.4521 19.094C82.3603 18.7047 82.3957 18.4459 82.5044 18.28L82.1895 18.0739ZM82.0887 19.1912C82.1515 19.4002 82.1579 19.5327 82.1402 19.6079C82.1319 19.6417 82.1203 19.6586 82.1105 19.6681C82.1011 19.6777 82.0838 19.6895 82.0492 19.6975L82.1338 20.0641C82.2241 20.0433 82.3076 20.0025 82.3754 19.9356C82.4427 19.8687 82.4845 19.7855 82.5059 19.6953C82.5473 19.5226 82.518 19.3123 82.4491 19.0832L82.0887 19.1912ZM82.0194 19.7069C81.8618 19.7721 81.8151 19.7373 81.7978 19.72C81.7572 19.6796 81.706 19.5639 81.7015 19.3015L81.3253 19.3082C81.3302 19.585 81.3798 19.8349 81.5322 19.9865C81.7075 20.1612 81.9453 20.1447 82.1632 20.0547L82.0194 19.7069ZM81.7008 19.3216C81.7211 19.0944 81.7113 18.8932 81.6594 18.7281C81.606 18.5582 81.5051 18.4197 81.3464 18.343L81.1827 18.682C81.2282 18.7038 81.2707 18.7466 81.3005 18.8408C81.3313 18.9398 81.3441 19.0856 81.326 19.2881L81.7008 19.3216ZM81.2722 18.3245C81.273 18.3246 81.2692 18.3245 81.2594 18.3215C81.2497 18.3186 81.2357 18.3133 81.2181 18.3045L81.0518 18.6419C81.1138 18.6727 81.1838 18.6975 81.2568 18.7005L81.2722 18.3245ZM81.2478 18.3229C81.1315 18.2355 80.9803 18.0095 80.8061 17.5923C80.6368 17.1852 80.4581 16.6274 80.2711 15.9152C79.8971 14.4916 79.4945 12.4709 79.0637 9.85022L78.6924 9.91125C79.1239 12.536 79.5287 14.5702 79.9072 16.0107C80.0961 16.7306 80.2801 17.3072 80.4588 17.7369C80.6338 18.1563 80.817 18.4695 81.0217 18.6236L81.2478 18.3229ZM78.9907 10.0314C81.1184 8.44087 82.9288 7.71176 84.4319 7.7881L84.4511 7.41235C82.8167 7.32939 80.9182 8.12062 78.7654 9.73005L78.9907 10.0314ZM84.4168 7.78671C85.0794 7.87483 85.5331 8.07735 85.8108 8.36931C86.0832 8.65612 86.21 9.0555 86.1652 9.5963L86.5403 9.62742C86.5915 9.00929 86.4481 8.49392 86.0836 8.11016C85.7239 7.73163 85.1738 7.50781 84.4661 7.41375L84.4168 7.78671ZM86.1671 9.58182C86.09 10.0572 85.8018 10.6228 85.2735 11.2817L85.567 11.517C86.1133 10.8358 86.4466 10.2097 86.5384 9.6419L86.1671 9.58182ZM85.269 11.2873C84.8397 11.8662 84.6794 12.6166 84.7633 13.5163L85.1381 13.4814C85.0598 12.644 85.2129 11.9947 85.5711 11.5114L85.269 11.2873ZM84.7682 13.5446C84.836 13.8157 84.8495 14.0023 84.8292 14.1191C84.8194 14.1751 84.8032 14.2055 84.7904 14.2215C84.7791 14.2354 84.7645 14.2462 84.7385 14.253L84.8345 14.6168C84.933 14.5908 85.0188 14.5379 85.0835 14.4574C85.1467 14.379 85.1821 14.2841 85.1998 14.1841C85.234 13.9888 85.205 13.7404 85.1332 13.4532L84.7682 13.5446ZM84.7197 14.2591C84.6648 14.2799 84.6377 14.2757 84.6271 14.2724C84.6185 14.2697 84.5986 14.2606 84.5726 14.2188C84.5143 14.124 84.4661 13.9268 84.4563 13.5895L84.0805 13.6003C84.0903 13.9466 84.1384 14.2311 84.2524 14.4163C84.313 14.5145 84.3988 14.595 84.5146 14.6314C84.6286 14.6672 84.7453 14.6517 84.8533 14.6108L84.7197 14.2591ZM84.4563 13.6055C84.4657 13.4386 84.462 13.2928 84.4413 13.1729C84.4213 13.0578 84.3811 12.9383 84.2927 12.8559C84.1911 12.7609 84.0624 12.7472 83.9454 12.7786C83.8378 12.8075 83.7302 12.8751 83.626 12.9598L83.8634 13.2518C83.9518 13.18 84.0105 13.1507 84.0428 13.142C84.0654 13.1359 84.0504 13.1443 84.0361 13.1308C84.0349 13.1299 84.0556 13.1514 84.0707 13.2369C84.0846 13.3175 84.0891 13.4317 84.0805 13.5844L84.4563 13.6055ZM83.62 12.965C83.0669 13.455 82.4231 13.9744 81.6872 14.5232L81.9122 14.8248C82.6545 14.2711 83.3069 13.745 83.8694 13.2466L83.62 12.965ZM81.6127 14.695C81.6575 15.0931 81.9081 16.1122 82.3543 17.7303L82.717 17.6303C82.2674 15.9995 82.0273 15.0145 81.9867 14.653L81.6127 14.695ZM82.3505 17.7127C82.3524 17.7242 82.3528 17.7581 82.328 17.8242C82.3031 17.8886 82.2595 17.9706 82.191 18.0715L82.5025 18.2825C82.5804 18.1676 82.641 18.059 82.6794 17.9579C82.7174 17.8585 82.7392 17.7519 82.7211 17.6479L82.3505 17.7127ZM93.857 15.6498L93.6997 15.5465L93.9845 15.7882L93.857 15.6498ZM93.8856 15.6237L94.0327 15.741L93.7581 15.4853L93.8856 15.6237ZM93.2652 17.208L93.0771 17.2111V17.2147L93.2652 17.208ZM93.4243 19.0521L93.6121 19.0446L93.6117 19.034L93.6102 19.0234L93.4243 19.0521ZM92.7569 19.0988L92.5688 19.0943L92.5684 19.1073L92.5699 19.1203L92.7569 19.0988ZM92.3505 17.0061L92.4337 16.8374L92.3378 16.79L92.2482 16.8483L92.3505 17.0061ZM91.5206 17.4932L91.5981 17.6646L91.6037 17.662L91.6094 17.659L91.5206 17.4932ZM88.6514 18.6365L88.6123 18.4525L88.6104 18.4529L88.6514 18.6365ZM87.2239 17.7513L87.406 17.7047V17.704L87.2239 17.7513ZM88.0923 16.343L88.1724 16.5132L88.1785 16.5103L88.1845 16.507L88.0923 16.343ZM89.332 16.1838L89.3109 16.3708L89.3173 16.3715L89.3237 16.3717L89.332 16.1838ZM90.4457 15.8642L90.5141 16.0394L90.5243 16.0355L90.5337 16.0305L90.4457 15.8642ZM91.8742 14.7733L91.6861 14.7685L91.6857 14.7847L91.688 14.8007L91.8742 14.7733ZM89.9968 14.2821L90.0325 14.0974L90.0194 14.0949L90.0058 14.0942L89.9968 14.2821ZM89.5088 14.7392L89.3211 14.7477L89.3215 14.7549L89.3222 14.762L89.5088 14.7392ZM89.0137 15.348L89.0739 15.1697L89.0592 15.1648L89.0446 15.1624L89.0137 15.348ZM88.733 14.6182L88.9189 14.6474L88.923 14.6215L88.9196 14.5955L88.733 14.6182ZM88.116 13.8335L88.1032 13.6458L88.0505 14.0098L88.116 13.8335ZM88.128 13.8326L88.1412 14.0203L88.204 13.6606L88.128 13.8326ZM86.6141 11.8839L86.8018 11.8733L86.8014 11.8686L86.6141 11.8839ZM90.2222 6.70649L90.1612 6.52861L90.1481 6.53309L90.136 6.53941L90.2222 6.70649ZM93.033 8.44373L93.2212 8.44061V8.4399L93.033 8.44373ZM91.9239 10.9929L91.9758 11.1737L92.0375 11.156L92.0755 11.1044L91.9239 10.9929ZM90.498 10.1318L90.3339 10.04L90.3177 10.069L90.3125 10.1018L90.498 10.1318ZM91.124 8.80082L91.3103 8.77433L91.2941 8.65902L91.1835 8.6223L91.124 8.80082ZM90.9216 8.75454L90.943 8.5677L90.9152 8.56443L90.8874 8.56955L90.9216 8.75454ZM89.054 10.3052L88.9046 10.191L88.8974 10.2L88.8918 10.2099L89.054 10.3052ZM88.7594 11.7097L88.5754 11.7495L88.5765 11.7544L88.7594 11.7097ZM92.5661 12.7428L92.5985 12.5574L92.597 12.5572L92.5661 12.7428ZM94.1704 14.6006L94.3582 14.5875V14.5861L94.1704 14.6006ZM93.9845 15.7882L94.0131 15.762L93.7581 15.4853L93.7295 15.5115L93.9845 15.7882ZM93.7385 15.5063C93.2968 16.0597 93.0673 16.6291 93.0771 17.2111L93.4533 17.2049C93.4454 16.7326 93.6298 16.2458 94.0327 15.741L93.7385 15.5063ZM93.0771 17.2147C93.1023 17.9232 93.1557 18.5455 93.2385 19.0808L93.6102 19.0234C93.5304 18.5065 93.4778 17.8994 93.4529 17.2013L93.0771 17.2147ZM93.2362 19.0596C93.2407 19.1746 93.22 19.2297 93.2039 19.2528C93.1937 19.2673 93.1753 19.2858 93.1147 19.2901L93.1406 19.6654C93.2889 19.655 93.4236 19.5953 93.5124 19.4679C93.5951 19.3492 93.6185 19.1987 93.6121 19.0446L93.2362 19.0596ZM93.1147 19.2901C93.0477 19.2947 93.0218 19.2776 93.0071 19.2627C92.9864 19.2415 92.9567 19.1903 92.9435 19.0773L92.5699 19.1203C92.5876 19.275 92.6354 19.4208 92.7381 19.5259C92.8472 19.6373 92.9913 19.6758 93.1406 19.6654L93.1147 19.2901ZM92.9446 19.1032C92.9597 18.4748 92.9337 17.9729 92.8622 17.6046C92.8265 17.4204 92.778 17.2614 92.7121 17.1341C92.6467 17.0071 92.5575 16.8983 92.4337 16.8374L92.2674 17.1748C92.2941 17.1879 92.334 17.2219 92.3776 17.3064C92.4209 17.3905 92.4608 17.5116 92.4928 17.6762C92.5567 18.0054 92.5834 18.4758 92.5688 19.0943L92.9446 19.1032ZM92.2482 16.8483C92.0025 17.0075 91.7305 17.1673 91.4318 17.3273L91.6094 17.659C91.916 17.4947 92.1974 17.3297 92.4529 17.1639L92.2482 16.8483ZM91.4431 17.3217C89.949 17.9966 89.0129 18.3675 88.6123 18.4525L88.6905 18.8205C89.1394 18.7253 90.1161 18.3339 91.5981 17.6646L91.4431 17.3217ZM88.6104 18.4529C88.2608 18.5313 88.0076 18.4956 87.8255 18.3827C87.6431 18.2695 87.496 18.0567 87.406 17.7047L87.0415 17.7979C87.1457 18.2059 87.3338 18.5205 87.6273 18.7025C87.9211 18.8846 88.2846 18.9115 88.6924 18.8201L88.6104 18.4529ZM87.406 17.704C87.3402 17.4508 87.3707 17.2388 87.4854 17.0528C87.6039 16.8606 87.824 16.6772 88.1724 16.5132L88.0122 16.1728C87.6269 16.3542 87.3361 16.5782 87.1649 16.8554C86.9903 17.1389 86.9534 17.4584 87.0418 17.7987L87.406 17.704ZM88.1845 16.507C88.4298 16.369 88.797 16.3133 89.3109 16.3708L89.3531 15.9969C88.803 15.9353 88.3436 15.9858 88.0001 16.179L88.1845 16.507ZM89.3237 16.3717C89.4452 16.377 89.6078 16.3444 89.7955 16.2905C89.9893 16.235 90.2289 16.1509 90.5141 16.0394L90.3772 15.689C90.0976 15.7983 89.8696 15.8779 89.6921 15.9289C89.5085 15.9815 89.3963 15.9983 89.3403 15.9958L89.3237 16.3717ZM90.5337 16.0305C91.0281 15.769 91.4036 15.5424 91.6541 15.351C91.7787 15.2558 91.8806 15.1634 91.9502 15.0738C92.0161 14.9895 92.0793 14.8751 92.0601 14.7458L91.688 14.8007C91.6842 14.7751 91.6993 14.7839 91.6538 14.8423C91.6124 14.8955 91.5394 14.9654 91.4258 15.052C91.2004 15.2243 90.8464 15.4394 90.3576 15.6979L90.5337 16.0305ZM92.0624 14.778C92.0639 14.7122 92.0345 14.6641 92.0134 14.6383C91.9924 14.6122 91.9687 14.5939 91.9506 14.5818C91.9149 14.5575 91.8708 14.5374 91.8276 14.5201C91.7388 14.4847 91.6124 14.4463 91.454 14.4049C91.1349 14.3215 90.6601 14.2189 90.0325 14.0974L89.9611 14.4668C90.5867 14.588 91.0518 14.6886 91.3588 14.7689C91.5134 14.8093 91.6214 14.843 91.6884 14.8696C91.7045 14.8761 91.717 14.8816 91.7264 14.8862C91.7309 14.8884 91.7343 14.8902 91.7369 14.8916C91.7392 14.893 91.7403 14.8937 91.7403 14.8937C91.7403 14.8937 91.7399 14.8934 91.7392 14.8928C91.7384 14.8922 91.7369 14.8912 91.7354 14.8899C91.7324 14.8874 91.7271 14.8824 91.7207 14.8746C91.7094 14.8606 91.6846 14.8237 91.6861 14.7685L92.0624 14.778ZM90.0058 14.0942C89.8117 14.0847 89.6255 14.121 89.4915 14.2467C89.3549 14.3748 89.3124 14.5571 89.3211 14.7477L89.6969 14.7308C89.6909 14.6 89.7229 14.5456 89.7489 14.5213C89.7771 14.4946 89.8422 14.4629 89.9874 14.47L90.0058 14.0942ZM89.3222 14.762C89.3376 14.8874 89.338 14.9841 89.3286 15.0557C89.3188 15.1281 89.3004 15.1625 89.2887 15.1771C89.2823 15.1847 89.2481 15.2285 89.0739 15.1697L88.9535 15.5262C89.1751 15.6009 89.4215 15.6099 89.5803 15.4146C89.651 15.3277 89.6864 15.2186 89.7015 15.1055C89.7169 14.9915 89.7131 14.8606 89.6958 14.7164L89.3222 14.762ZM89.0446 15.1624C88.9821 15.152 88.9494 15.1256 88.9264 15.0661C88.8974 14.9902 88.8858 14.8575 88.9189 14.6474L88.5472 14.5891C88.5103 14.823 88.511 15.0339 88.5754 15.2012C88.6461 15.385 88.7887 15.5014 88.9828 15.5336L89.0446 15.1624ZM88.9196 14.5955C88.8926 14.3736 88.8188 14.1774 88.6913 14.0152C88.5637 13.8529 88.3907 13.7351 88.1818 13.6572L88.0505 14.0098C88.2055 14.0676 88.3173 14.1484 88.3955 14.2477C88.4734 14.3471 88.5261 14.4754 88.5464 14.641L88.9196 14.5955ZM88.1292 14.0212L88.1412 14.0203L88.1149 13.645L88.1032 13.6458L88.1292 14.0212ZM88.204 13.6606C87.745 13.4576 87.4068 13.2061 87.178 12.9118C86.9508 12.6191 86.8244 12.2752 86.8018 11.8733L86.4263 11.8944C86.4527 12.3674 86.6035 12.7856 86.8808 13.1426C87.157 13.4978 87.5513 13.7833 88.052 14.0047L88.204 13.6606ZM86.8014 11.8686C86.719 10.8521 86.9651 9.93439 87.5411 9.10776C88.1198 8.27763 89.037 7.53087 90.3087 6.87362L90.136 6.53941C88.8297 7.2146 87.8568 7.99699 87.2326 8.89266C86.6058 9.79179 86.3368 10.7965 86.4267 11.8991L86.8014 11.8686ZM90.2835 6.88442C91.1876 6.57338 91.8099 6.58328 92.2038 6.82682C92.5906 7.06576 92.8269 7.57523 92.8449 8.44757L93.2212 8.4399C93.2024 7.52207 92.9522 6.84687 92.4017 6.50675C91.8588 6.17122 91.0943 6.2076 90.1612 6.52861L90.2835 6.88442ZM92.8449 8.44686C92.8551 9.06298 92.5168 9.87035 91.7726 10.8813L92.0755 11.1044C92.8321 10.0766 93.2336 9.18462 93.2212 8.44061L92.8449 8.44686ZM91.872 10.8121C91.6079 10.8879 91.3904 10.9247 91.2162 10.9277C91.0416 10.9307 90.9227 10.8996 90.8445 10.8522C90.7083 10.7701 90.6157 10.5828 90.6838 10.1617L90.3125 10.1018C90.2368 10.569 90.3106 10.9693 90.65 11.1743C90.8091 11.2704 91.0051 11.3077 91.223 11.3039C91.4412 11.3001 91.6929 11.2549 91.9758 11.1737L91.872 10.8121ZM90.6624 10.2235C90.8798 9.83438 91.0428 9.52512 91.1496 9.29738C91.203 9.18387 91.2444 9.08695 91.2715 9.00854C91.2854 8.96938 91.2967 8.93149 91.3039 8.89635C91.3103 8.86441 91.317 8.82024 91.3103 8.77433L90.9378 8.82727C90.9355 8.80932 90.9389 8.80342 90.9355 8.82016C90.9325 8.8337 90.9269 8.85485 90.9163 8.88514C90.8953 8.94556 90.8603 9.02893 90.8095 9.13725C90.7079 9.35314 90.5499 9.65349 90.3339 10.04L90.6624 10.2235ZM91.1835 8.6223C91.1026 8.59543 91.0224 8.57689 90.943 8.5677L90.8998 8.94142C90.9506 8.94729 91.0055 8.95959 91.0649 8.97935L91.1835 8.6223ZM90.8874 8.56955C90.5792 8.62632 90.2621 8.80112 89.9377 9.07055C89.6119 9.3411 89.2677 9.71617 88.9046 10.191L89.2033 10.4195C89.5562 9.95794 89.8813 9.60638 90.1782 9.36002C90.4761 9.11257 90.7346 8.98021 90.9555 8.93954L90.8874 8.56955ZM88.8918 10.2099C88.5829 10.7347 88.4678 11.2511 88.5754 11.7495L88.943 11.6699C88.8606 11.2873 88.9415 10.8673 89.2161 10.4007L88.8918 10.2099ZM88.5765 11.7544C88.5995 11.8482 88.6645 11.9166 88.7236 11.9638C88.7861 12.0136 88.8655 12.0588 88.9561 12.1008C89.1375 12.1852 89.3914 12.2704 89.7124 12.3575C90.3561 12.5322 91.2982 12.7223 92.5353 12.9283L92.597 12.5572C91.3637 12.3518 90.4363 12.164 89.8109 11.9944C89.4975 11.9093 89.2673 11.8307 89.1145 11.7597C89.0378 11.724 88.9881 11.6936 88.9584 11.6699C88.9257 11.6436 88.9362 11.6405 88.9418 11.6651L88.5765 11.7544ZM92.5338 12.9281C92.9943 13.0087 93.3322 13.1898 93.565 13.4597C93.7991 13.7308 93.9439 14.11 93.983 14.6151L94.3582 14.5861C94.3145 14.0253 94.1505 13.562 93.8499 13.2138C93.5481 12.8644 93.1248 12.6495 92.5985 12.5574L92.5338 12.9281ZM93.9827 14.6137C94.0034 14.9087 93.9157 15.2182 93.6997 15.5465L94.0143 15.7531C94.2648 15.372 94.3856 14.982 94.3582 14.5875L93.9827 14.6137Z" fill="white"/>
</g>
</svg>
