<svg width="76" height="40" viewBox="0 0 76 40" fill="none" xmlns="http://www.w3.org/2000/svg">
<g clip-path="url(#clip0_1502_1302)">
<path d="M16.8198 34.3404C16.7836 34.0349 16.6369 33.7979 16.3797 33.6291C16.1226 33.4603 15.8071 33.3759 15.4334 33.3759C15.1601 33.3759 14.921 33.4201 14.7161 33.5085C14.5131 33.5969 14.3544 33.7185 14.2399 33.8732C14.1273 34.0279 14.0711 34.2037 14.0711 34.4006C14.0711 34.5654 14.1103 34.7071 14.1886 34.8256C14.269 34.9421 14.3715 35.0396 14.496 35.1179C14.6206 35.1943 14.7512 35.2576 14.8879 35.3078C15.0245 35.356 15.1501 35.3952 15.2646 35.4254L15.8915 35.5941C16.0522 35.6363 16.2311 35.6946 16.428 35.769C16.6269 35.8433 16.8168 35.9448 16.9976 36.0734C17.1804 36.1999 17.3311 36.3627 17.4497 36.5616C17.5682 36.7605 17.6275 37.0047 17.6275 37.294C17.6275 37.6275 17.5401 37.9289 17.3653 38.1982C17.1925 38.4674 16.9393 38.6814 16.6058 38.8401C16.2743 38.9989 15.8714 39.0782 15.3972 39.0782C14.9552 39.0782 14.5724 39.0069 14.2489 38.8642C13.9274 38.7216 13.6743 38.5227 13.4894 38.2675C13.3066 38.0123 13.2031 37.7159 13.179 37.3784H13.9505C13.9706 37.6115 14.049 37.8043 14.1856 37.9571C14.3243 38.1077 14.4991 38.2203 14.71 38.2946C14.923 38.3669 15.1521 38.4031 15.3972 38.4031C15.6825 38.4031 15.9387 38.3569 16.1658 38.2645C16.3928 38.17 16.5726 38.0394 16.7052 37.8727C16.8379 37.7039 16.9042 37.507 16.9042 37.2819C16.9042 37.077 16.8469 36.9102 16.7324 36.7816C16.6178 36.653 16.4671 36.5486 16.2803 36.4682C16.0934 36.3878 15.8915 36.3175 15.6745 36.2572L14.915 36.0402C14.4328 35.9016 14.051 35.7037 13.7697 35.4465C13.4884 35.1893 13.3477 34.8527 13.3477 34.4368C13.3477 34.0912 13.4412 33.7898 13.628 33.5326C13.8169 33.2734 14.0701 33.0725 14.3875 32.9298C14.707 32.7852 15.0637 32.7128 15.4575 32.7128C15.8553 32.7128 16.209 32.7842 16.5184 32.9268C16.8278 33.0675 17.0729 33.2604 17.2538 33.5055C17.4366 33.7506 17.5331 34.0289 17.5431 34.3404H16.8198ZM24.0645 35.8835C24.0645 36.5345 23.9469 37.0971 23.7118 37.5713C23.4767 38.0455 23.1543 38.4111 22.7444 38.6683C22.3345 38.9255 21.8663 39.0541 21.3399 39.0541C20.8135 39.0541 20.3453 38.9255 19.9354 38.6683C19.5255 38.4111 19.203 38.0455 18.9679 37.5713C18.7329 37.0971 18.6153 36.5345 18.6153 35.8835C18.6153 35.2325 18.7329 34.6699 18.9679 34.1957C19.203 33.7215 19.5255 33.3558 19.9354 33.0986C20.3453 32.8414 20.8135 32.7128 21.3399 32.7128C21.8663 32.7128 22.3345 32.8414 22.7444 33.0986C23.1543 33.3558 23.4767 33.7215 23.7118 34.1957C23.9469 34.6699 24.0645 35.2325 24.0645 35.8835ZM23.3411 35.8835C23.3411 35.349 23.2517 34.8979 23.0729 34.5302C22.8961 34.1625 22.656 33.8843 22.3526 33.6954C22.0512 33.5065 21.7136 33.4121 21.3399 33.4121C20.9662 33.4121 20.6276 33.5065 20.3242 33.6954C20.0228 33.8843 19.7827 34.1625 19.6039 34.5302C19.4271 34.8979 19.3386 35.349 19.3386 35.8835C19.3386 36.4179 19.4271 36.869 19.6039 37.2367C19.7827 37.6044 20.0228 37.8827 20.3242 38.0716C20.6276 38.2605 20.9662 38.3549 21.3399 38.3549C21.7136 38.3549 22.0512 38.2605 22.3526 38.0716C22.656 37.8827 22.8961 37.6044 23.0729 37.2367C23.2517 36.869 23.3411 36.4179 23.3411 35.8835ZM25.3213 38.9697V32.7972H26.0687V38.3067H28.938V38.9697H25.3213ZM34.146 32.7972H34.8934V36.8841C34.8934 37.306 34.794 37.6828 34.5951 38.0143C34.3982 38.3438 34.1199 38.604 33.7602 38.7949C33.4006 38.9838 32.9786 39.0782 32.4944 39.0782C32.0101 39.0782 31.5882 38.9838 31.2285 38.7949C30.8689 38.604 30.5896 38.3438 30.3907 38.0143C30.1938 37.6828 30.0953 37.306 30.0953 36.8841V32.7972H30.8427V36.8238C30.8427 37.1252 30.9091 37.3935 31.0417 37.6285C31.1743 37.8616 31.3631 38.0455 31.6083 38.1801C31.8554 38.3127 32.1508 38.379 32.4944 38.379C32.838 38.379 33.1333 38.3127 33.3805 38.1801C33.6276 38.0455 33.8165 37.8616 33.9471 37.6285C34.0797 37.3935 34.146 37.1252 34.146 36.8238V32.7972ZM36.0485 33.4603V32.7972H40.6779V33.4603H38.7369V38.9697H37.9895V33.4603H36.0485ZM42.5789 32.7972V38.9697H41.8315V32.7972H42.5789ZM49.2856 35.8835C49.2856 36.5345 49.1681 37.0971 48.933 37.5713C48.6979 38.0455 48.3754 38.4111 47.9655 38.6683C47.5556 38.9255 47.0875 39.0541 46.561 39.0541C46.0346 39.0541 45.5665 38.9255 45.1566 38.6683C44.7467 38.4111 44.4242 38.0455 44.1891 37.5713C43.954 37.0971 43.8365 36.5345 43.8365 35.8835C43.8365 35.2325 43.954 34.6699 44.1891 34.1957C44.4242 33.7215 44.7467 33.3558 45.1566 33.0986C45.5665 32.8414 46.0346 32.7128 46.561 32.7128C47.0875 32.7128 47.5556 32.8414 47.9655 33.0986C48.3754 33.3558 48.6979 33.7215 48.933 34.1957C49.1681 34.6699 49.2856 35.2325 49.2856 35.8835ZM48.5623 35.8835C48.5623 35.349 48.4729 34.8979 48.294 34.5302C48.1172 34.1625 47.8771 33.8843 47.5737 33.6954C47.2723 33.5065 46.9348 33.4121 46.561 33.4121C46.1873 33.4121 45.8488 33.5065 45.5454 33.6954C45.244 33.8843 45.0039 34.1625 44.825 34.5302C44.6482 34.8979 44.5598 35.349 44.5598 35.8835C44.5598 36.4179 44.6482 36.869 44.825 37.2367C45.0039 37.6044 45.244 37.8827 45.5454 38.0716C45.8488 38.2605 46.1873 38.3549 46.561 38.3549C46.9348 38.3549 47.2723 38.2605 47.5737 38.0716C47.8771 37.8827 48.1172 37.6044 48.294 37.2367C48.4729 36.869 48.5623 36.4179 48.5623 35.8835ZM55.437 32.7972V38.9697H54.7137L51.3501 34.1234H51.2899V38.9697H50.5424V32.7972H51.2658L54.6413 37.6557H54.7016V32.7972H55.437ZM60.3082 34.3404C60.2721 34.0349 60.1254 33.7979 59.8682 33.6291C59.611 33.4603 59.2956 33.3759 58.9218 33.3759C58.6486 33.3759 58.4095 33.4201 58.2045 33.5085C58.0016 33.5969 57.8429 33.7185 57.7283 33.8732C57.6158 34.0279 57.5596 34.2037 57.5596 34.4006C57.5596 34.5654 57.5987 34.7071 57.6771 34.8256C57.7575 34.9421 57.8599 35.0396 57.9845 35.1179C58.1091 35.1943 58.2397 35.2576 58.3763 35.3078C58.513 35.356 58.6385 35.3952 58.7531 35.4254L59.38 35.5941C59.5407 35.6363 59.7195 35.6946 59.9164 35.769C60.1154 35.8433 60.3052 35.9448 60.4861 36.0734C60.6689 36.1999 60.8196 36.3627 60.9382 36.5616C61.0567 36.7605 61.116 37.0047 61.116 37.294C61.116 37.6275 61.0286 37.9289 60.8538 38.1982C60.681 38.4674 60.4278 38.6814 60.0943 38.8401C59.7627 38.9989 59.3599 39.0782 58.8857 39.0782C58.4436 39.0782 58.0609 39.0069 57.7374 38.8642C57.4159 38.7216 57.1627 38.5227 56.9779 38.2675C56.795 38.0123 56.6916 37.7159 56.6674 37.3784H57.439C57.4591 37.6115 57.5375 37.8043 57.6741 37.9571C57.8127 38.1077 57.9875 38.2203 58.1985 38.2946C58.4115 38.3669 58.6405 38.4031 58.8857 38.4031C59.171 38.4031 59.4272 38.3569 59.6542 38.2645C59.8813 38.17 60.0611 38.0394 60.1937 37.8727C60.3263 37.7039 60.3926 37.507 60.3926 37.2819C60.3926 37.077 60.3354 36.9102 60.2208 36.7816C60.1063 36.653 59.9556 36.5486 59.7688 36.4682C59.5819 36.3878 59.38 36.3175 59.163 36.2572L58.4035 36.0402C57.9212 35.9016 57.5395 35.7037 57.2582 35.4465C56.9769 35.1893 56.8362 34.8527 56.8362 34.4368C56.8362 34.0912 56.9297 33.7898 57.1165 33.5326C57.3054 33.2734 57.5586 33.0725 57.876 32.9298C58.1955 32.7852 58.5521 32.7128 58.946 32.7128C59.3438 32.7128 59.6974 32.7842 60.0069 32.9268C60.3163 33.0675 60.5614 33.2604 60.7422 33.5055C60.9251 33.7506 61.0215 34.0289 61.0316 34.3404H60.3082Z" fill="white"/>
<path fill-rule="evenodd" clip-rule="evenodd" d="M56.6212 20.3357C56.3727 20.9094 56.0294 21.4229 55.5896 21.8732C55.1514 22.3234 54.644 22.7059 54.0747 23.0222C53.501 23.3384 52.8866 23.5748 52.233 23.7374C51.5795 23.9016 50.9154 23.9859 50.2332 23.9859C49.2137 23.9799 48.262 23.7886 47.3826 23.4227C46.4986 23.0508 45.7261 22.5327 45.0605 21.8671C44.3964 21.2091 43.8784 20.432 43.5019 19.5526C43.13 18.6671 42.9387 17.7154 42.9327 16.6854C42.9342 16.3631 42.9553 16.0484 42.9929 15.7412C41.4539 17.7531 40.067 20.0179 38.8352 21.7542C39.2011 22.5734 39.6469 23.3429 40.1769 24.0657C40.9374 25.1078 41.8394 26.0083 42.8755 26.7748C43.9176 27.5413 45.056 28.1331 46.2999 28.5548C47.5452 28.9719 48.8523 29.1857 50.2317 29.1918C51.4093 29.1857 52.5463 29.0336 53.635 28.7234C54.7268 28.4147 55.7463 27.975 56.6935 27.4058C57.1919 27.1061 57.6633 26.7763 58.109 26.4149V28.0337H62.5604V15.9084C58.4388 15.9008 57.2145 15.8828 53.0959 15.8828V20.3372H56.6197L56.6212 20.3357Z" fill="white"/>
<path fill-rule="evenodd" clip-rule="evenodd" d="M56.5068 12.9681L60.5832 9.56931C59.0607 7.55294 57.0157 5.93713 54.6545 5.02456C53.2676 4.496 51.7918 4.22494 50.2317 4.21289C48.8524 4.21891 47.5452 4.43124 46.2999 4.84988C45.056 5.27303 43.9176 5.86334 42.8755 6.62381C37.0869 10.9035 33.2454 21.145 27.5276 23.3195C26.7234 23.6252 25.8711 23.7758 24.9645 23.7818C23.9676 23.7758 23.0385 23.5906 22.1756 23.2186C21.3143 22.8467 20.5523 22.3407 19.9003 21.6811C19.2407 21.0276 18.7332 20.2671 18.3628 19.4057C17.9908 18.5444 17.8041 17.6137 17.7996 16.6168C17.8041 15.6305 17.9908 14.7074 18.3628 13.8445C18.7347 12.9771 19.2407 12.2227 19.9003 11.5631C20.5538 10.9035 21.3143 10.3915 22.1756 10.0196C23.037 9.64762 23.9661 9.45637 24.9645 9.45035C25.838 9.45637 26.6602 9.60244 27.4372 9.89459C28.2097 10.1822 28.9069 10.5933 29.5213 11.1113C30.1403 11.6294 30.6477 12.2392 31.0483 12.9304L34.3447 8.8224C33.92 8.30287 33.4517 7.81948 32.9412 7.37072C31.8705 6.43557 30.6658 5.70974 29.3135 5.17967C27.9673 4.65562 26.5141 4.39209 24.9645 4.38004C23.6062 4.38607 22.3172 4.59388 21.0944 5.01101C19.8716 5.42211 18.7558 6.0079 17.7363 6.75783C16.7168 7.51228 15.8374 8.39623 15.089 9.41722C14.339 10.4367 13.7653 11.5571 13.3542 12.7738C12.9431 13.9906 12.7353 15.2691 12.7292 16.6153C12.7353 17.9736 12.9431 19.2627 13.3542 20.4855C13.7653 21.7022 14.339 22.8241 15.089 23.8436C15.8374 24.8631 16.7168 25.7425 17.7363 26.4909C18.7558 27.2408 19.8716 27.8146 21.0944 28.2257C22.3172 28.6368 23.6062 28.8446 24.9645 28.8506C26.5593 28.8386 28.0456 28.563 29.425 28.0224C38.3262 24.5333 40.4812 12.8536 47.3811 9.95181C48.2605 9.58136 49.2123 9.38861 50.2317 9.38258C52.8384 9.38258 55.1545 10.7183 56.5052 12.9666L56.5068 12.9681Z" fill="white"/>
</g>
<defs>
<clipPath id="clip0_1502_1302">
<rect width="75.2941" height="40" fill="white"/>
</clipPath>
</defs>
</svg>
